<?xml version="1.0" encoding="UTF-8" standalone="no"?>
<!-- Created with Inkscape (http://www.inkscape.org/) -->

<svg
   width="66.616493mm"
   height="22.260117mm"
   viewBox="0 0 66.616493 22.260116"
   version="1.1"
   id="svg5"
   sodipodi:docname="feynman.svg"
   inkscape:version="1.1.2 (0a00cf5339, 2022-02-04)"
   xmlns:inkscape="http://www.inkscape.org/namespaces/inkscape"
   xmlns:sodipodi="http://sodipodi.sourceforge.net/DTD/sodipodi-0.dtd"
   xmlns="http://www.w3.org/2000/svg"
   xmlns:svg="http://www.w3.org/2000/svg"
   xmlns:ns1="http://www.iki.fi/pav/software/textext/">
  <sodipodi:namedview
     id="namedview7"
     pagecolor="#ffffff"
     bordercolor="#666666"
     borderopacity="1.0"
     inkscape:pageshadow="2"
     inkscape:pageopacity="0.0"
     inkscape:pagecheckerboard="0"
     inkscape:document-units="mm"
     showgrid="false"
     inkscape:zoom="7.5893748"
     inkscape:cx="130.31376"
     inkscape:cy="53.627606"
     inkscape:window-width="1920"
     inkscape:window-height="1053"
     inkscape:window-x="0"
     inkscape:window-y="0"
     inkscape:window-maximized="1"
     inkscape:current-layer="layer1" />
  <defs
     id="defs2">
    <inkscape:path-effect
       effect="rough_hatches"
       id="path-effect1253"
       is_visible="true"
       lpeversion="1"
       direction="77.562759,20.012106 , -2.2222014,2.0791604"
       dist_rdm="75;1"
       growth="0"
       do_bend="true"
       bender="77.562759,25.012106 , 5,0"
       bottom_edge_variation="1.33543;1"
       top_edge_variation="1.33543;1"
       bottom_tgt_variation="0;1"
       top_tgt_variation="0;1"
       scale_bf="1"
       scale_bb="1"
       scale_tf="1"
       scale_tb="1"
       top_smth_variation="0;1"
       bottom_smth_variation="0;1"
       fat_output="true"
       stroke_width_top="1"
       stroke_width_bottom="1"
       front_thickness="1"
       back_thickness="0.25" />
    <marker
       style="overflow:visible"
       id="Arrow2Lend"
       refX="0"
       refY="0"
       orient="auto"
       inkscape:stockid="Arrow2Lend"
       inkscape:isstock="true">
      <path
         transform="matrix(-1.1,0,0,-1.1,-1.1,0)"
         d="M 8.7185878,4.0337352 -2.2072895,0.01601326 8.7185884,-4.0017078 c -1.7454984,2.3720609 -1.7354408,5.6174519 -6e-7,8.035443 z"
         style="fill:context-stroke;fill-rule:evenodd;stroke:context-stroke;stroke-width:0.625;stroke-linejoin:round"
         id="path5280" />
    </marker>
    <linearGradient
       id="linearGradient4079"
       inkscape:swatch="solid">
      <stop
         style="stop-color:#000000;stop-opacity:1;"
         offset="0"
         id="stop4077" />
    </linearGradient>
    <linearGradient
       id="linearGradient4055"
       inkscape:swatch="solid">
      <stop
         style="stop-color:#000000;stop-opacity:1;"
         offset="0"
         id="stop4053" />
    </linearGradient>
    <linearGradient
       id="linearGradient3943"
       inkscape:swatch="solid">
      <stop
         style="stop-color:#000000;stop-opacity:1;"
         offset="0"
         id="stop3941" />
    </linearGradient>
    <marker
       style="overflow:visible"
       id="Arrow2Lend-3"
       refX="0"
       refY="0"
       orient="auto"
       inkscape:stockid="Arrow2Lend"
       inkscape:isstock="true">
      <path
         transform="matrix(-1.1,0,0,-1.1,-1.1,0)"
         d="M 8.7185878,4.0337352 -2.2072895,0.01601326 8.7185884,-4.0017078 c -1.7454984,2.3720609 -1.7354408,5.6174519 -6e-7,8.035443 z"
         style="fill:context-stroke;fill-rule:evenodd;stroke:context-stroke;stroke-width:0.625;stroke-linejoin:round"
         id="path5280-6" />
    </marker>
    <marker
       style="overflow:visible"
       id="Arrow2Lend-3-5"
       refX="0"
       refY="0"
       orient="auto"
       inkscape:stockid="Arrow2Lend"
       inkscape:isstock="true">
      <path
         transform="matrix(-1.1,0,0,-1.1,-1.1,0)"
         d="M 8.7185878,4.0337352 -2.2072895,0.01601326 8.7185884,-4.0017078 c -1.7454984,2.3720609 -1.7354408,5.6174519 -6e-7,8.035443 z"
         style="fill:context-stroke;fill-rule:evenodd;stroke:context-stroke;stroke-width:0.625;stroke-linejoin:round"
         id="path5280-6-3" />
    </marker>
  </defs>
  <g
     inkscape:label="Layer 1"
     inkscape:groupmode="layer"
     id="layer1"
     transform="translate(-36.4499, -13.5918)">
    <path
       style="font-variation-settings:normal;opacity:1;vector-effect:none;fill:none;fill-opacity:1;fill-rule:evenodd;stroke:#000000;stroke-width:0.23267;stroke-linecap:butt;stroke-linejoin:miter;stroke-miterlimit:4;stroke-dasharray:none;stroke-dashoffset:0;stroke-opacity:1;-inkscape-stroke:none;stop-color:#000000;stop-opacity:1"
       d="m 36.192394,24.252614 c 0.291617,-1.663 0.583234,-2.6125 0.874929,-1.369 0.291617,1.2435 0.583311,3.617 0.874929,3.4185 0.291617,-0.1984 0.583311,-2.8022 0.874929,-3.7485 0.291694,-0.9464 0.583311,0.5779 0.874928,2.1931 0.291695,1.6152 0.583312,1.937 0.874929,0.4654 0.291695,-1.4716 0.583312,-3.4777 0.875007,-2.8898 0.291617,0.5878 0.583234,3.2691 0.874928,3.8607 0.291618,0.5916 0.583312,-1.4163 0.874929,-2.8898 0.291618,-1.4735 0.583312,-1.1489 0.874929,0.4654 0.291617,1.6142 0.583312,3.1362 0.874929,2.1931 0.291695,-0.943 0.583312,-3.5461 0.874929,-3.7485 0.291695,-0.2025 0.583312,2.1723 0.875006,3.4185 0.291617,1.2462 0.583235,0.294 0.874929,-1.3691 0.291617,-1.663 0.583235,-2.6125 0.874929,-1.369 0.291617,1.2435 0.583312,3.617 0.874929,3.4185 0.291617,-0.1984 0.583312,-2.8022 0.874929,-3.7485 0.291694,-0.9464 0.583312,0.5779 0.874929,2.1931 0.291694,1.6152 0.583312,1.937 0.874929,0.4654 0.291694,-1.4716 0.583311,-3.4777 0.875006,-2.8898 0.291617,0.5878 0.583234,3.2691 0.874929,3.8607 0.291617,0.5916 0.583312,-1.4163 0.874929,-2.8898 0.291617,-1.4735 0.583311,-1.1489 0.874929,0.4654 0.291617,1.6142 0.583311,3.1362 0.874929,2.1931 0.291694,-0.943 0.583311,-3.5461 0.874928,-3.7485 0.291695,-0.2025 0.583312,2.1723 0.875007,3.4185 0.291617,1.2462 0.583234,0.294 0.874929,-1.3691 0.291617,-1.663 0.583234,-2.6125 0.874929,-1.369 0.291617,1.2435 0.583311,3.617 0.874928,3.4185 0.291618,-0.1984 0.583312,-2.8022 0.874929,-3.7485 0.291695,-0.9464 0.583312,0.5779 0.874929,2.1931 0.291695,1.6152 0.583312,1.937 0.875006,0.4654 0.291618,-1.4716 0.583235,-3.4777 0.874929,-2.8898 0.291618,0.5878 0.583235,3.2691 0.874929,3.8607 0.291617,0.5916 0.583312,-1.4163 0.874929,-2.8898 0.291617,-1.4735 0.583312,-1.1489 0.874929,0.4654 0.291695,1.6142 0.583312,3.1362 0.874929,2.1931 0.291694,-0.943 0.583312,-3.5461 0.874929,-3.7485 0.291694,-0.2025 0.583312,2.1723 0.875006,3.4185 0.291617,1.2462 0.583234,0.294 0.874929,-1.3691"
       title="t sin(15*t)"
       id="path4206" />
    <path
       id="path4947"
       style="fill:none;fill-opacity:0.00863935;stroke:#000060;stroke-width:0.4;stroke-opacity:1"
       d="m 73.484087,30.298765 c 0,0 -0.396199,-0.88468 -0.877513,-1.741643 -0.475128,-0.845948 -1.035159,-1.681558 -1.008164,-1.537741 -0.05041,-0.268576 0.873624,0.727947 1.814051,1.823792 0.935926,1.0906 1.893892,2.298561 2.382535,2.426638 0.837031,0.219392 0.105002,-1.629939 -1.197976,-3.508763 -1.30728,-1.885027 -3.239372,-3.818153 -3.244022,-3.797365 0.04664,-0.208557 2.010984,1.652722 3.590633,3.501673 1.595493,1.867493 2.814691,3.778289 2.993788,3.761482 0.422461,-0.03964 -0.605145,-2.154828 -2.244517,-4.237728 -1.639372,-2.0829 -3.875249,-4.133517 -3.912691,-4.044026 0.03564,-0.08519 2.279337,1.980359 4.105914,4.040844 1.826578,2.060486 3.238488,4.115907 3.557084,4.010452 0.532819,-0.176362 -0.491315,-2.367961 -2.167194,-4.511876 -1.67588,-2.143915 -3.981442,-4.240146 -3.992316,-4.225771 0.09432,-0.124684 2.627513,2.082884 4.653201,4.264293 2.037776,2.194425 3.575049,4.32364 3.863198,4.107329 0.521698,-0.391632 -0.766858,-2.838151 -2.863227,-5.264457 -2.069748,-2.395496 -4.878014,-4.678348 -4.981193,-4.588597 0.02391,-0.0208 2.668079,2.213779 4.776717,4.41668 2.108639,2.202902 3.697995,4.374129 3.828151,4.226631 0.303248,-0.343649 -1.144691,-2.657509 -3.296966,-4.981977 -2.122005,-2.291776 -4.874362,-4.496083 -4.931656,-4.457165 0.08324,-0.05654 2.736055,2.057133 4.886741,4.139404 2.150687,2.082271 3.814749,4.133138 3.917039,3.950985 0.230158,-0.409857 -1.238779,-2.527434 -3.311002,-4.644128 -2.038935,-2.082692 -4.589536,-4.062496 -4.664238,-4.026796 0.08603,-0.04112 2.589825,1.910033 4.667953,3.778667 2.086982,1.876596 3.771061,3.646795 3.865534,3.283586 0.165788,-0.637383 -1.221109,-2.506 -3.068036,-4.328793 -1.81066,-1.787 -3.966863,-3.420796 -4.02412,-3.40957 0.14774,-0.02897 2.204745,1.497646 3.958955,2.970383 1.763453,1.480497 3.224643,2.883839 3.211534,2.647133 -0.0301,-0.54353 -1.051187,-1.768771 -2.303064,-2.918912 -1.230874,-1.130846 -2.623436,-2.128703 -2.875933,-2.120987 -0.0052,1.6e-4 1.648294,1.321777 3.101244,2.596018 1.461019,1.281318 2.718867,2.494029 2.692655,2.31176 -0.07419,-0.515853 -1.079074,-1.687965 -2.263683,-2.798822 -1.163653,-1.091207 -2.439766,-2.062205 -2.563727,-2.077578 0.180095,0.02233 1.404342,0.942974 2.444071,1.757927 1.031608,0.808589 1.921872,1.530584 1.721554,1.123806 -0.797222,-1.618886 -1.189979,-1.891846 -2.377966,-2.499914 0.134888,0.06904 1.020247,0.659975 1.020247,0.659975 0,0 -0.846525,-0.844357 -1.935279,-1.390193 -1.27467,-0.639043 -0.446405,0.167218 0.519546,1.014635 0.987631,0.866436 2.12414,1.791541 1.96078,1.485279 0.0614,0.115107 -0.757004,-0.58159 -1.745315,-1.318933 -0.988311,-0.737342 -2.153561,-1.515328 -2.538305,-1.5628 -0.690346,-0.08518 0.808789,1.294964 2.247959,2.615879 1.443777,1.325144 2.837846,2.578375 2.77912,2.260521 -0.0028,-0.01522 -1.253711,-1.244609 -2.712205,-2.468967 -1.458493,-1.224358 -3.123207,-2.443689 -3.282648,-2.438811 -0.406413,0.01244 1.154625,1.383318 2.603257,2.695637 1.455533,1.318571 2.802868,2.559823 2.782104,2.344262 0.0056,0.05795 -1.46891,-1.374305 -3.249855,-2.807113 -1.780946,-1.432808 -3.868526,-2.866164 -4.150649,-2.810403 -0.485474,0.09595 1.774244,2.036975 3.744304,3.950793 1.970061,1.913818 3.661888,3.800432 3.664707,3.78757 -0.04768,0.217557 -1.766791,-1.594169 -3.909676,-3.437202 -2.142884,-1.843034 -4.723573,-3.717375 -4.912981,-3.625051 -0.346998,0.169138 2.228557,2.407209 4.370244,4.567826 2.141687,2.160616 3.886794,4.243778 3.960034,4.103098 -0.0276,0.05302 -1.73516,-2.029667 -3.971047,-4.095565 -2.235887,-2.065897 -4.991997,-4.115004 -5.164001,-3.994824 -0.308626,0.215639 2.408197,2.637892 4.601909,4.975002 2.193711,2.337109 3.908076,4.589075 4.013208,4.46414 -0.03242,0.03852 -1.670194,-2.169552 -3.877366,-4.363635 -2.207172,-2.194083 -4.976645,-4.374173 -5.081411,-4.279676 -0.227328,0.205046 2.482772,2.663226 4.598563,5.072687 2.115791,2.40946 3.662426,4.770201 3.649299,4.780368 -0.18291,0.141662 -1.763076,-2.059939 -3.895764,-4.242608 -2.132689,-2.182669 -4.80787,-4.346406 -4.963419,-4.129015 -0.230581,0.322254 1.862378,2.581421 3.508736,4.645705 1.673632,2.09848 2.970624,4.104667 3.008545,4.091942 -0.173398,0.05818 -1.631044,-2.055465 -3.571274,-4.133247 -1.940229,-2.077782 -4.34528,-4.119697 -4.421391,-3.918048 -0.126789,0.335913 1.828178,2.497818 3.388808,4.439068 1.593124,1.981669 2.881865,3.863941 3.107504,3.842685 -0.01679,0.0016 -1.278748,-1.979481 -2.989429,-3.878302 -1.699819,-1.886765 -3.829792,-3.727458 -3.892388,-3.384853 -0.09071,0.496498 1.417923,2.413353 2.586484,4.060002 1.200392,1.691502 2.159421,3.247358 2.154669,3.246126 -0.311257,-0.08072 -1.291758,-1.412129 -2.349511,-2.58896 -1.069935,-1.190384 -2.140936,-2.185526 -2.021113,-1.661469 0.433206,1.894657 2.501652,4.009601 2.501652,4.009601 z"
       inkscape:path-effect="#path-effect1253"
       inkscape:original-d="m 84.23991,25.012106 a 6.6771502,6.6771502 0 0 1 -6.677151,6.67715 6.6771502,6.6771502 0 0 1 -6.67715,-6.67715 6.6771502,6.6771502 0 0 1 6.67715,-6.67715 6.6771502,6.6771502 0 0 1 6.677151,6.67715 z" />
    <path
       style="fill:none;stroke:#000000;stroke-width:0.226543px;stroke-linecap:butt;stroke-linejoin:miter;stroke-opacity:1;marker-mid:url(#Arrow2Lend)"
       d="m 84.944959,24.854613 h 9.358291 9.5069"
       id="path5720"
       sodipodi:nodetypes="ccc" />
    <path
       style="fill:none;stroke:#000000;stroke-width:0.224825px;stroke-linecap:butt;stroke-linejoin:miter;stroke-opacity:1;marker-mid:url(#Arrow2Lend-3)"
       d="m 84.934997,24.871626 9.354636,-5.445959 9.503207,-5.532443"
       id="path5720-7"
       sodipodi:nodetypes="ccc" />
    <path
       style="fill:none;stroke:#000000;stroke-width:0.226206px;stroke-linecap:butt;stroke-linejoin:miter;stroke-opacity:1;marker-mid:url(#Arrow2Lend-3-5)"
       d="m 84.925558,24.821841 9.335001,5.524641 9.483251,5.612376"
       id="path5720-7-5"
       sodipodi:nodetypes="ccc" />
    <g
       transform="matrix(0.352778,0,0,0.352778,55.917617,17.700693)"
       ns1:version="1.6.0"
       ns1:texconverter="pdflatex"
       ns1:pdfconverter="inkscape"
       ns1:text="$\\gamma$"
       ns1:preamble="/usr/share/inkscape/extensions/textext/default_packages.tex"
       ns1:scale="1.0"
       ns1:alignment="middle center"
       ns1:stroke-to-path="0"
       ns1:inkscapeversion="1.1.2"
       ns1:jacobian_sqrt="0.352778"
       id="g907">
      <defs
         id="id-89d27a95-bf50-4a4a-8ac5-c197fddcc432">
        <g
           id="id-53e74e39-d0f8-44f2-88ac-938472b94f72">
          <symbol
             overflow="visible"
             id="id-a40f8160-9fb7-4fcb-bbcf-b14ccbd37087">
            <path
               style="stroke:none;stroke-width:0"
               d=""
               id="id-11ca9334-65b2-47ce-a441-c3d551dc2829" />
          </symbol>
          <symbol
             overflow="visible"
             id="id-8dc9c38f-4192-4e8b-a075-04dbf0b92361">
            <path
               style="stroke:none;stroke-width:0"
               d="M 0.40625,-2.53125 C 0.796875,-3.671875 1.890625,-3.6875 2,-3.6875 c 1.5,0 1.609375,1.75 1.609375,2.53125 0,0.609375 -0.046875,0.78125 -0.125,0.984375 -0.21875,0.71875 -0.515625,1.875 -0.515625,2.140625 0,0.109375 0.046875,0.171875 0.125,0.171875 0.140625,0 0.21875,-0.21875 0.328125,-0.59375 C 3.65625,0.703125 3.75,0.140625 3.78125,-0.171875 c 0.03125,-0.125 0.046875,-0.25 0.09375,-0.390625 0.3125,-0.984375 0.953125,-2.46875 1.34375,-3.25 0.078125,-0.125 0.1875,-0.34375 0.1875,-0.390625 0,-0.09375 -0.09375,-0.09375 -0.109375,-0.09375 -0.03125,0 -0.09375,0 -0.125,0.0625 C 4.65625,-3.28125 4.25,-2.28125 3.859375,-1.28125 3.84375,-1.578125 3.84375,-2.34375 3.453125,-3.3125 3.203125,-3.921875 2.8125,-4.40625 2.125,-4.40625 c -1.25,0 -1.953125,1.515625 -1.953125,1.828125 0,0.09375 0.09375,0.09375 0.203125,0.09375 z m 0,0"
               id="id-81ea86fd-a99b-4ae2-bd03-0f8c84a301f9" />
          </symbol>
        </g>
      </defs>
      <g
         id="id-a22c457c-51aa-4b83-ad39-58df4f4d3848"
         transform="translate(-148.884,-130.359)">
        <g
           style="fill:#000000;fill-opacity:1"
           id="id-69f41312-12fc-43fb-bccf-86057fa04c3d">
          <g
             transform="translate(148.712,134.765)"
             id="g903">
            <path
               style="stroke:none;stroke-width:0"
               d="M 0.40625,-2.53125 C 0.796875,-3.671875 1.890625,-3.6875 2,-3.6875 c 1.5,0 1.609375,1.75 1.609375,2.53125 0,0.609375 -0.046875,0.78125 -0.125,0.984375 -0.21875,0.71875 -0.515625,1.875 -0.515625,2.140625 0,0.109375 0.046875,0.171875 0.125,0.171875 0.140625,0 0.21875,-0.21875 0.328125,-0.59375 C 3.65625,0.703125 3.75,0.140625 3.78125,-0.171875 c 0.03125,-0.125 0.046875,-0.25 0.09375,-0.390625 0.3125,-0.984375 0.953125,-2.46875 1.34375,-3.25 0.078125,-0.125 0.1875,-0.34375 0.1875,-0.390625 0,-0.09375 -0.09375,-0.09375 -0.109375,-0.09375 -0.03125,0 -0.09375,0 -0.125,0.0625 C 4.65625,-3.28125 4.25,-2.28125 3.859375,-1.28125 3.84375,-1.578125 3.84375,-2.34375 3.453125,-3.3125 3.203125,-3.921875 2.8125,-4.40625 2.125,-4.40625 c -1.25,0 -1.953125,1.515625 -1.953125,1.828125 0,0.09375 0.09375,0.09375 0.203125,0.09375 z m 0,0"
               id="id-9f4315c3-d0f2-4a40-b48b-cee8ce1628b5" />
          </g>
        </g>
      </g>
    </g>
    <g
       transform="matrix(0.352778,0,0,0.352778,75.837665,14.746486)"
       ns1:version="1.6.0"
       ns1:texconverter="pdflatex"
       ns1:pdfconverter="inkscape"
       ns1:text="$p$"
       ns1:preamble="/usr/share/inkscape/extensions/textext/default_packages.tex"
       ns1:scale="1.0"
       ns1:alignment="middle center"
       ns1:stroke-to-path="0"
       ns1:inkscapeversion="1.1.2"
       ns1:jacobian_sqrt="0.352778"
       id="g1099">
      <defs
         id="id-3595cb4a-a307-43a9-9b5c-1474de5f01ac">
        <g
           id="id-c2e6d9c0-1ee2-4fbb-bbe4-68dc3c97426a">
          <symbol
             overflow="visible"
             id="id-1bcdf71c-0235-43c5-9902-88237f81f754">
            <path
               style="stroke:none;stroke-width:0"
               d=""
               id="id-fd41ed7f-28c5-4e8f-86ba-49035180907c" />
          </symbol>
          <symbol
             overflow="visible"
             id="id-a0955eef-3a6d-4287-926b-86ebb50ae0bb">
            <path
               style="stroke:none;stroke-width:0"
               d="M 0.453125,1.21875 C 0.375,1.5625 0.34375,1.625 -0.09375,1.625 c -0.109375,0 -0.21875,0 -0.21875,0.1875 0,0.078125 0.046875,0.125 0.125,0.125 0.265625,0 0.5625,-0.03125 0.828125,-0.03125 0.34375,0 0.671875,0.03125 1,0.03125 0.046875,0 0.171875,0 0.171875,-0.203125 C 1.8125,1.625 1.71875,1.625 1.578125,1.625 c -0.5,0 -0.5,-0.0625 -0.5,-0.15625 0,-0.125 0.421875,-1.75 0.484375,-2 0.125,0.296875 0.40625,0.640625 0.921875,0.640625 1.15625,0 2.40625,-1.453125 2.40625,-2.921875 0,-0.9375 -0.578125,-1.59375 -1.328125,-1.59375 -0.5,0 -0.984375,0.359375 -1.3125,0.75 -0.09375,-0.546875 -0.53125,-0.75 -0.890625,-0.75 -0.46875,0 -0.65625,0.390625 -0.734375,0.5625 C 0.4375,-3.5 0.3125,-2.90625 0.3125,-2.875 c 0,0.109375 0.09375,0.109375 0.109375,0.109375 0.109375,0 0.109375,-0.015625 0.171875,-0.234375 0.171875,-0.703125 0.375,-1.1875 0.734375,-1.1875 0.171875,0 0.3125,0.078125 0.3125,0.453125 0,0.234375 -0.03125,0.34375 -0.078125,0.515625 z m 1.75,-4.328125 C 2.265625,-3.375 2.546875,-3.65625 2.71875,-3.8125 c 0.359375,-0.296875 0.640625,-0.375 0.8125,-0.375 0.390625,0 0.640625,0.34375 0.640625,0.9375 0,0.59375 -0.328125,1.734375 -0.515625,2.109375 -0.34375,0.703125 -0.8125,1.03125 -1.1875,1.03125 C 1.8125,-0.109375 1.6875,-0.9375 1.6875,-1 c 0,-0.015625 0,-0.03125 0.03125,-0.15625 z m 0,0"
               id="id-d082c495-22e0-43c2-924b-5b4ad50a0297" />
          </symbol>
        </g>
      </defs>
      <g
         id="id-fbb4a48d-5d24-4830-a469-82bf49a34394"
         transform="translate(-148.4,-130.359)">
        <g
           style="fill:#000000;fill-opacity:1"
           id="id-862c7d5b-4ac4-4881-ba2b-0aec5e2780f1">
          <g
             transform="translate(148.712,134.765)"
             id="g1095">
            <path
               style="stroke:none;stroke-width:0"
               d="M 0.453125,1.21875 C 0.375,1.5625 0.34375,1.625 -0.09375,1.625 c -0.109375,0 -0.21875,0 -0.21875,0.1875 0,0.078125 0.046875,0.125 0.125,0.125 0.265625,0 0.5625,-0.03125 0.828125,-0.03125 0.34375,0 0.671875,0.03125 1,0.03125 0.046875,0 0.171875,0 0.171875,-0.203125 C 1.8125,1.625 1.71875,1.625 1.578125,1.625 c -0.5,0 -0.5,-0.0625 -0.5,-0.15625 0,-0.125 0.421875,-1.75 0.484375,-2 0.125,0.296875 0.40625,0.640625 0.921875,0.640625 1.15625,0 2.40625,-1.453125 2.40625,-2.921875 0,-0.9375 -0.578125,-1.59375 -1.328125,-1.59375 -0.5,0 -0.984375,0.359375 -1.3125,0.75 -0.09375,-0.546875 -0.53125,-0.75 -0.890625,-0.75 -0.46875,0 -0.65625,0.390625 -0.734375,0.5625 C 0.4375,-3.5 0.3125,-2.90625 0.3125,-2.875 c 0,0.109375 0.09375,0.109375 0.109375,0.109375 0.109375,0 0.109375,-0.015625 0.171875,-0.234375 0.171875,-0.703125 0.375,-1.1875 0.734375,-1.1875 0.171875,0 0.3125,0.078125 0.3125,0.453125 0,0.234375 -0.03125,0.34375 -0.078125,0.515625 z m 1.75,-4.328125 C 2.265625,-3.375 2.546875,-3.65625 2.71875,-3.8125 c 0.359375,-0.296875 0.640625,-0.375 0.8125,-0.375 0.390625,0 0.640625,0.34375 0.640625,0.9375 0,0.59375 -0.328125,1.734375 -0.515625,2.109375 -0.34375,0.703125 -0.8125,1.03125 -1.1875,1.03125 C 1.8125,-0.109375 1.6875,-0.9375 1.6875,-1 c 0,-0.015625 0,-0.03125 0.03125,-0.15625 z m 0,0"
               id="id-fcaf4564-55e2-4af3-8fbf-53a71c1740c9" />
          </g>
        </g>
      </g>
    </g>
    <circle
       style="fill:none;fill-opacity:0.00863935;stroke:#000000;stroke-width:0.400649;stroke-miterlimit:4;stroke-dasharray:none"
       id="path1379"
       cx="77.656502"
       cy="24.768166"
       r="7.2849307" />
  </g>
</svg>
