<?xml version="1.0" encoding="UTF-8" standalone="no"?>
<!-- Created with Inkscape (http://www.inkscape.org/) -->

<svg
   width="54.030441mm"
   height="39.01915mm"
   viewBox="0 0 54.030441 39.01915"
   version="1.1"
   id="svg5"
   sodipodi:docname="brems.svg"
   inkscape:version="1.2.1 (9c6d41e410, 2022-07-14)"
   xmlns:inkscape="http://www.inkscape.org/namespaces/inkscape"
   xmlns:sodipodi="http://sodipodi.sourceforge.net/DTD/sodipodi-0.dtd"
   xmlns="http://www.w3.org/2000/svg"
   xmlns:svg="http://www.w3.org/2000/svg"
   xmlns:ns1="http://www.iki.fi/pav/software/textext/">
  <sodipodi:namedview
     id="namedview7"
     pagecolor="#ffffff"
     bordercolor="#666666"
     borderopacity="1.0"
     inkscape:showpageshadow="2"
     inkscape:pageopacity="0.0"
     inkscape:pagecheckerboard="0"
     inkscape:deskcolor="#d1d1d1"
     inkscape:document-units="mm"
     showgrid="false"
     inkscape:zoom="3.1037318"
     inkscape:cx="14.981965"
     inkscape:cy="56.383738"
     inkscape:window-width="1920"
     inkscape:window-height="1053"
     inkscape:window-x="0"
     inkscape:window-y="0"
     inkscape:window-maximized="1"
     inkscape:current-layer="layer1" />
  <defs
     id="defs2">
    <marker
       style="overflow:visible"
       id="marker2637"
       refX="0"
       refY="0"
       orient="auto-start-reverse"
       inkscape:stockid="Arrow1L"
       markerWidth="8.75"
       markerHeight="5"
       viewBox="0 0 8.75 5"
       inkscape:isstock="true"
       inkscape:collect="always"
       preserveAspectRatio="xMidYMid">
      <path
         style="fill:context-stroke;fill-rule:evenodd;stroke:none"
         d="M 0,0 5,-5 -12.5,0 5,5 Z"
         id="path2635"
         transform="scale(-0.5)" />
    </marker>
    <marker
       style="overflow:visible"
       id="Arrow1L"
       refX="0"
       refY="0"
       orient="auto-start-reverse"
       inkscape:stockid="Arrow1L"
       markerWidth="8.75"
       markerHeight="5"
       viewBox="0 0 8.75 5"
       inkscape:isstock="true"
       inkscape:collect="always"
       preserveAspectRatio="xMidYMid">
      <path
         style="fill:context-stroke;fill-rule:evenodd;stroke:none"
         d="M 0,0 5,-5 -12.5,0 5,5 Z"
         id="arrow1L"
         transform="scale(-0.5)" />
    </marker>
    <inkscape:path-effect
       effect="rough_hatches"
       id="path-effect1253"
       is_visible="true"
       lpeversion="1"
       direction="77.562759,20.012106 , -2.2222014,2.0791604"
       dist_rdm="75;1"
       growth="0.3"
       do_bend="true"
       bender="77.562759,25.012106 , 5,0"
       bottom_edge_variation="1.33543;1"
       top_edge_variation="1.33543;1"
       bottom_tgt_variation="0;1"
       top_tgt_variation="0;1"
       scale_bf="1"
       scale_bb="1"
       scale_tf="1"
       scale_tb="1"
       top_smth_variation="0;1"
       bottom_smth_variation="0;1"
       fat_output="true"
       stroke_width_top="1"
       stroke_width_bottom="1"
       front_thickness="1"
       back_thickness="0.25" />
  </defs>
  <g
     inkscape:label="Layer 1"
     inkscape:groupmode="layer"
     id="layer1"
     transform="translate(-17.0923, -22.6803)">
    <ellipse
       style="opacity:0.61;fill:none;stroke-width:0;stroke-linecap:round;paint-order:fill markers stroke"
       id="path165"
       cx="36.530331"
       cy="38.551182"
       rx="5.6217132"
       ry="3.0212522" />
    <ellipse
       style="opacity:0.61;fill:none;stroke-width:0;stroke-linecap:round;paint-order:fill markers stroke"
       id="path216"
       cx="47.173691"
       cy="59.374535"
       rx="25.060064"
       ry="22.773556" />
    <path
       id="path4947"
       style="fill:none;fill-opacity:0.00863935;stroke:#8181ce;stroke-width:0.4;stroke-opacity:1"
       d="m 22.210001,48.680699 c 0,0 0.757069,0.944702 1.530792,1.939722 0.768681,0.988536 1.581137,2.06041 2.038477,2.274192 0.839066,0.392217 0.305287,-1.032757 -0.683796,-2.552627 -0.99014,-1.521494 -2.479488,-3.142751 -2.478661,-3.151214 0.02631,-0.269217 1.601921,1.271161 2.977307,2.843661 1.384331,1.582727 2.561152,3.228259 2.96787,3.220485 0.66064,-0.01263 -0.264116,-2.144938 -1.877465,-4.233007 -1.613349,-2.08807 -3.893818,-4.131898 -3.956484,-3.967558 0.0059,-0.01543 2.178663,2.048941 3.937738,4.100875 1.759075,2.051935 3.110283,4.091432 3.379809,4.026247 0.494174,-0.119515 -0.59821,-2.410718 -2.389244,-4.668331 -1.791034,-2.257614 -4.264103,-4.481639 -4.273182,-4.4668 0.0825,-0.134852 2.799792,2.208745 4.942673,4.538506 2.142882,2.32976 3.719094,4.645684 4.033097,4.455483 0.542659,-0.328705 -0.642596,-2.705899 -2.560897,-5.086356 -1.898647,-2.35607 -4.496937,-4.642239 -4.469627,-4.666955 0.153349,-0.138784 2.709023,1.941519 4.757939,4.018129 2.048915,2.07661 3.592915,4.149527 3.720639,3.995973 0.293988,-0.35344 -1.114489,-2.587341 -3.194084,-4.820234 -2.049888,-2.200996 -4.693053,-4.305292 -4.791872,-4.240032 0.04418,-0.02918 2.570106,2.037528 4.640729,4.042922 2.083466,2.017832 3.722212,3.93704 3.861271,3.675058 0.269208,-0.507177 -1.156883,-2.599755 -3.182106,-4.670029 -1.990335,-2.034609 -4.476126,-3.939922 -4.580546,-3.894247 0.06148,-0.02689 2.495025,1.882248 4.523078,3.719364 2.038692,1.846752 3.685412,3.592572 3.760083,3.287218 0.142172,-0.58139 -1.222658,-2.390616 -2.996633,-4.165971 -1.74021,-1.741564 -3.785875,-3.347885 -3.745976,-3.354509 0.251636,-0.04178 2.162585,1.334995 3.774522,2.596678 1.605503,1.256646 2.965498,2.413307 2.86031,1.906114 -0.337985,-1.629702 -3.862381,-4.503661 -4.338693,-4.605649 0.116274,0.0249 1.38421,0.982188 2.47587,1.847936 1.086399,0.861576 2.030437,1.644125 1.834154,1.298674 -0.892371,-1.57054 -0.194458,-0.935281 -1.6518,-1.754002 0.03736,0.02099 0.275055,0.07616 0.275055,0.07616 0,0 -0.04776,-0.188646 -1.172634,-0.806381 -1.42535,-0.782742 -0.730438,-0.07386 0.09372,0.643368 0.848883,0.738743 1.90384,1.560351 1.629899,1.110634 0.01556,0.02555 -0.851457,-0.723362 -1.87509,-1.497528 -1.023632,-0.774166 -2.208123,-1.573592 -2.563775,-1.649082 -0.703648,-0.149357 0.581292,1.007506 1.897189,2.203539 1.31367,1.194008 2.634805,2.421111 2.630087,2.40211 0.07221,0.290773 -1.262104,-0.861692 -2.887036,-2.080039 -1.621036,-1.215426 -3.542044,-2.487971 -3.932167,-2.422753 -0.60042,0.100374 1.550899,2.01684 3.455429,3.89004 1.904529,1.8732 3.580313,3.703133 3.595112,3.63044 -0.03256,0.159917 -1.714224,-1.629364 -3.80406,-3.439807 -2.089836,-1.810442 -4.596991,-3.642046 -4.765991,-3.566775 -0.33193,0.147839 2.185591,2.315944 4.284421,4.433571 2.098831,2.117627 3.802416,4.184777 3.828903,4.130706 -0.07006,0.143023 -1.752557,-1.832539 -3.904109,-3.820824 -2.151553,-1.988284 -4.778171,-3.98929 -4.913911,-3.897157 -0.274874,0.186569 2.336479,2.514848 4.459696,4.764879 2.123216,2.250031 3.797258,4.421813 3.897241,4.295387 -0.03287,0.04156 -1.622024,-2.069378 -3.763676,-4.137001 -2.129423,-2.055817 -4.801907,-4.103736 -5.043046,-3.877101 -0.315107,0.296153 2.142128,2.799965 4.050093,5.123322 1.934856,2.356102 3.379801,4.629981 3.379788,4.629989 -0.183734,0.114124 -1.815809,-2.251697 -4.076638,-4.587387 -2.239498,-2.313653 -5.120867,-4.663285 -5.267399,-4.406602 -0.195693,0.342799 2.04631,2.722345 3.789115,4.874845 1.776437,2.19404 3.14351,4.285653 3.247358,4.260286 -0.118576,0.02896 -1.514073,-2.070456 -3.38871,-4.143298 -1.874636,-2.072842 -4.215564,-4.119104 -4.26161,-3.983824 -0.09378,0.275521 1.881725,2.404884 3.407604,4.336809 1.557102,1.971457 2.74565,3.864071 2.762124,3.863756 -0.23725,0.0045 -1.452807,-1.724502 -2.946683,-3.348175 -1.491515,-1.621107 -3.222464,-3.144544 -3.246796,-2.715971 -0.03653,0.643341 0.912724,2.107498 1.71107,3.317036 0.820255,1.242731 1.562013,2.330424 1.684936,2.386805 -0.229713,-0.105362 -0.947275,-0.988033 -1.660569,-1.825275 -0.716309,-0.840779 -1.450233,-1.658421 -1.450233,-1.658421 z"
       inkscape:path-effect="#path-effect1253"
       inkscape:original-d="m 35.359741,47.040604 a 6.6771502,6.6771502 0 0 1 -6.67715,6.67715 6.6771502,6.6771502 0 0 1 -6.67715,-6.67715 6.6771502,6.6771502 0 0 1 6.67715,-6.67715 6.6771502,6.6771502 0 0 1 6.67715,6.67715 z" />
    <circle
       style="fill:none;fill-opacity:0.00863935;stroke:#000000;stroke-width:0.400649;stroke-miterlimit:4;stroke-dasharray:none"
       id="path1379"
       cx="28.585558"
       cy="46.493111"
       r="7.2849307" />
    <path
       style="opacity:0.61;fill:none;stroke-width:0;stroke-linecap:round;paint-order:fill markers stroke"
       id="path631"
       d="m 21.233549,17.90827 c 0.670698,0.465309 1.301878,0.984131 1.950427,1.479337 1.012891,0.783012 2.058558,1.519349 3.116595,2.239796 1.37834,0.858213 2.766824,1.711116 4.052616,2.706376 0.929498,0.719472 1.152226,0.948743 2.029437,1.736661 1.414208,1.38247 2.747946,2.843414 4.131881,4.255485 0.805704,0.859951 1.801707,1.502193 2.756392,2.180627 0,0 2.952372,-1.880658 2.952372,-1.880658 v 0 c -0.6306,-0.435899 -0.668785,-0.43932 -1.253718,-0.935379 -0.176744,-0.149895 -0.344535,-0.310036 -0.516802,-0.465053 -0.148254,-0.136012 -0.291661,-0.277503 -0.44476,-0.408035 -0.150394,-0.128228 -0.310073,-0.245147 -0.465108,-0.367718 -1.566691,-1.263917 -3.014559,-2.66413 -4.486802,-4.034878 -0.542853,-0.500727 -1.419013,-1.322669 -1.990793,-1.795764 -0.321829,-0.266284 -0.65169,-0.523404 -0.991505,-0.76632 -0.327782,-0.234316 -0.676294,-0.438294 -1.009835,-0.664339 -1.062025,-0.719747 -0.898438,-0.618134 -1.872846,-1.384783 -0.942752,-0.816728 -1.874324,-1.649122 -2.881544,-2.387188 -0.611955,-0.476046 -1.251564,-0.936677 -1.720105,-1.564662 0,0 -3.355902,2.056495 -3.355902,2.056495 z" />
    <path
       style="fill:none;stroke:#000000;stroke-width:0.264583px;stroke-linecap:butt;stroke-linejoin:miter;stroke-opacity:1;marker-end:url(#Arrow1L)"
       d="m 17.150459,22.799075 17.93138,8.77558"
       id="path750" />
    <circle
       style="fill:#000000;fill-opacity:1;fill-rule:evenodd;stroke:#000030;stroke-width:0.265;stroke-dasharray:none;stroke-opacity:1"
       id="path1838"
       cx="39.332474"
       cy="34.526062"
       r="1.2084752" />
    <path
       style="fill:none;stroke:#000000;stroke-width:0.264583px;stroke-linecap:butt;stroke-linejoin:miter;stroke-opacity:1;marker-end:url(#marker2637)"
       d="m 41.476805,38.14478 c 0,0 4.063188,5.355268 4.166156,10.018684 0.08497,3.848172 -2.78793,11.976807 -2.78793,11.976807"
       id="path2633"
       sodipodi:nodetypes="csc" />
    <path
       style="font-variation-settings:normal;opacity:1;fill:none;fill-opacity:1;fill-rule:evenodd;stroke:#000000;stroke-width:0.244421;stroke-linecap:butt;stroke-linejoin:miter;stroke-miterlimit:4;stroke-dasharray:none;stroke-dashoffset:0;stroke-opacity:1;stop-color:#000000;stop-opacity:1"
       d="m 42.031488,33.252541 c 0.02818,-1.03387 0.140122,-1.640494 0.509502,-0.934115 0.369378,0.706379 0.871414,2.089348 1.07152,1.93238 0.200107,-0.156976 0.117809,-1.75406 0.230117,-2.358825 0.112307,-0.604779 0.514654,0.269749 0.927672,1.198695 0.413017,0.928961 0.674195,1.083474 0.724843,0.164208 0.05065,-0.919264 0.03857,-2.158497 0.330976,-1.844667 0.292414,0.31383 0.83053,1.881089 1.123384,2.197167 0.292854,0.316077 0.280547,-0.924288 0.330977,-1.844669 0.05043,-0.920379 0.31194,-0.764164 0.724842,0.164207 0.412904,0.928375 0.814977,1.801503 0.927674,1.198711 0.112647,-0.602795 0.03047,-2.199467 0.230117,-2.358824 0.199639,-0.159353 0.701828,1.224398 1.07152,1.932381 0.36969,0.707966 0.481325,0.09975 0.509502,-0.934131 0.02818,-1.03387 0.140121,-1.640495 0.5095,-0.934114 0.36933,0.706385 0.871365,2.089355 1.071472,1.932387 0.200107,-0.156976 0.117854,-1.754069 0.230309,-2.358858 0.111924,-0.604714 0.514366,0.269798 0.927479,1.198727 0.413116,0.928946 0.674389,1.083442 0.724651,0.164242 0.05075,-0.919281 0.03876,-2.15853 0.331264,-1.844716 0.29251,0.313814 0.830292,1.881128 1.123241,2.197191 0.292952,0.31606 0.280738,-0.92432 0.331264,-1.844718 0.05004,-0.920314 0.311652,-0.764115 0.724652,0.16424 0.413001,0.928357 0.815169,1.801469 0.927481,1.198744 0.11279,-0.60282 0.03071,-2.199508 0.230455,-2.358882 0.199252,-0.159287 0.701537,1.224448 1.071326,1.932413 0.369786,0.707951 0.481517,0.09972 0.509307,-0.934097 0.02828,-1.033886 0.140316,-1.640527 0.509792,-0.934165 0.369473,0.706362 0.871123,2.089398 1.071327,1.932412 0.200202,-0.156991 0.118046,-1.7541 0.230453,-2.358881 0.111923,-0.604714 0.514366,0.269797 0.927479,1.198727 0.413115,0.928944 0.674389,1.083441 0.72465,0.164241 0.05075,-0.91928 0.03876,-2.15853 0.331265,-1.844716 0.29203,0.313896 0.83029,1.881129 1.12324,2.197192 0.292952,0.31606 0.280739,-0.92432 0.330784,-1.844636 0.05053,-0.920397 0.312132,-0.764197 0.725136,0.164157 0.412999,0.928358 0.814689,1.801551 0.92748,1.198745 0.11279,-0.60282 0.03071,-2.199509 0.230453,-2.358883 0.199255,-0.159288 0.701538,1.224448 1.071327,1.932413 0.369786,0.707951 0.481517,0.09972 0.509306,-0.934098"
       title="t sin(15*t)"
       id="path5393" />
    <path
       style="fill:none;stroke:#000000;stroke-width:0.264583px;stroke-linecap:butt;stroke-linejoin:miter;stroke-opacity:1;marker-end:url(#marker2637)"
       d="m 69.097449,28.614333 0.436325,-0.125745"
       id="path5861" />
    <path
       style="fill:none;stroke:#000000;stroke-width:0.264583px;stroke-linecap:butt;stroke-linejoin:miter;stroke-opacity:1"
       d="m 68.086146,28.884337 1.053005,-0.282152"
       id="path6629" />
    <g
       transform="matrix(0.352778,0,0,0.352778,37.213301,29.821127)"
       ns1:version="1.6.0"
       ns1:texconverter="pdflatex"
       ns1:pdfconverter="inkscape"
       ns1:text="$e^-$"
       ns1:preamble="/usr/share/inkscape/extensions/textext/default_packages.tex"
       ns1:scale="1.0"
       ns1:alignment="middle center"
       ns1:stroke-to-path="0"
       ns1:jacobian_sqrt="0.352778"
       id="g7080">
      <defs
         id="id-b45a4c7c-e52f-4a79-bf17-36187c73e3b5">
        <g
           id="id-ebf3b01d-2243-4e2e-8a43-a417f53954d8">
          <g
             id="id-a0a7bf8e-9c64-4206-aa11-14bfbbbfd047" />
          <g
             id="id-010ee1c0-cd1e-4a25-a5b7-b09582b56636">
            <path
               d="m 1.859375,-2.296875 c 0.296875,0 1.03125,-0.03125 1.53125,-0.234375 0.703125,-0.296875 0.75,-0.890625 0.75,-1.03125 0,-0.4375 -0.375,-0.84375 -1.0625,-0.84375 -1.109375,0 -2.625,0.96875 -2.625,2.71875 0,1.015625 0.59375,1.796875 1.578125,1.796875 1.421875,0 2.25,-1.0625 2.25,-1.171875 0,-0.0625 -0.046875,-0.140625 -0.109375,-0.140625 -0.0625,0 -0.078125,0.03125 -0.140625,0.109375 -0.78125,0.984375 -1.875,0.984375 -1.984375,0.984375 -0.78125,0 -0.875,-0.84375 -0.875,-1.15625 0,-0.125 0.015625,-0.421875 0.15625,-1.03125 z m -0.46875,-0.21875 C 1.78125,-4.03125 2.8125,-4.1875 3.078125,-4.1875 c 0.453125,0 0.734375,0.296875 0.734375,0.625 0,1.046875 -1.59375,1.046875 -2.015625,1.046875 z m 0,0"
               id="id-8cc6615b-8dd8-4ceb-a402-6f37d3c80b9c" />
          </g>
          <g
             id="id-6a4686f7-0187-47b2-8b38-3176ea0247c3" />
          <g
             id="id-d7fe644c-2112-47ec-813a-3d51f08db224">
            <path
               d="m 5.1875,-1.578125 c 0.109375,0 0.28125,0 0.28125,-0.15625 0,-0.1875 -0.171875,-0.1875 -0.28125,-0.1875 H 1.03125 c -0.109375,0 -0.28125,0 -0.28125,0.171875 0,0.171875 0.15625,0.171875 0.28125,0.171875 z m 0,0"
               id="id-d92917c7-bb6e-4925-9b6d-bf62126a955d" />
          </g>
        </g>
      </defs>
      <g
         fill="#000000"
         fill-opacity="1"
         id="id-893f3d9a-c153-4404-9ad0-d8d312f8b177"
         transform="translate(-149.165,-129.227)">
        <g
           transform="translate(148.712,134.765)"
           id="g7073">
          <path
             d="m 1.859375,-2.296875 c 0.296875,0 1.03125,-0.03125 1.53125,-0.234375 0.703125,-0.296875 0.75,-0.890625 0.75,-1.03125 0,-0.4375 -0.375,-0.84375 -1.0625,-0.84375 -1.109375,0 -2.625,0.96875 -2.625,2.71875 0,1.015625 0.59375,1.796875 1.578125,1.796875 1.421875,0 2.25,-1.0625 2.25,-1.171875 0,-0.0625 -0.046875,-0.140625 -0.109375,-0.140625 -0.0625,0 -0.078125,0.03125 -0.140625,0.109375 -0.78125,0.984375 -1.875,0.984375 -1.984375,0.984375 -0.78125,0 -0.875,-0.84375 -0.875,-1.15625 0,-0.125 0.015625,-0.421875 0.15625,-1.03125 z m -0.46875,-0.21875 C 1.78125,-4.03125 2.8125,-4.1875 3.078125,-4.1875 c 0.453125,0 0.734375,0.296875 0.734375,0.625 0,1.046875 -1.59375,1.046875 -2.015625,1.046875 z m 0,0"
             id="id-22a38731-6a1c-4787-bc77-01a8335e4cb3" />
        </g>
      </g>
      <g
         fill="#000000"
         fill-opacity="1"
         id="id-d133a4ea-1b86-40a6-936e-5574d5c86b39"
         transform="translate(-149.165,-129.227)">
        <g
           transform="translate(153.351,131.149)"
           id="g7077">
          <path
             d="m 5.1875,-1.578125 c 0.109375,0 0.28125,0 0.28125,-0.15625 0,-0.1875 -0.171875,-0.1875 -0.28125,-0.1875 H 1.03125 c -0.109375,0 -0.28125,0 -0.28125,0.171875 0,0.171875 0.15625,0.171875 0.28125,0.171875 z m 0,0"
             id="id-9f233e68-3544-4ee8-b2e8-b3d638311aea" />
        </g>
      </g>
    </g>
    <g
       transform="matrix(0.352778,0,0,0.352778,65.488587,24.416267)"
       ns1:version="1.6.0"
       ns1:texconverter="pdflatex"
       ns1:pdfconverter="inkscape"
       ns1:text="$\\gamma$"
       ns1:preamble="/usr/share/inkscape/extensions/textext/default_packages.tex"
       ns1:scale="1.0"
       ns1:alignment="middle center"
       ns1:stroke-to-path="0"
       ns1:jacobian_sqrt="0.352778"
       id="g8704">
      <defs
         id="id-0dd13fba-1ca3-412a-9e8b-d403e38f1913">
        <g
           id="id-d1067485-84e3-4147-be79-1506adea93b6">
          <g
             id="id-402298ba-c21c-4213-b16d-9f2d1154f83e" />
          <g
             id="id-c830eada-a04b-478b-9c71-3d10b31d9c34">
            <path
               d="M 0.40625,-2.53125 C 0.796875,-3.671875 1.890625,-3.6875 2,-3.6875 c 1.5,0 1.609375,1.75 1.609375,2.53125 0,0.609375 -0.046875,0.78125 -0.125,0.984375 -0.21875,0.71875 -0.515625,1.875 -0.515625,2.140625 0,0.109375 0.046875,0.171875 0.125,0.171875 0.140625,0 0.21875,-0.21875 0.328125,-0.59375 C 3.65625,0.703125 3.75,0.140625 3.78125,-0.171875 c 0.03125,-0.125 0.046875,-0.25 0.09375,-0.390625 0.3125,-0.984375 0.953125,-2.46875 1.34375,-3.25 0.078125,-0.125 0.1875,-0.34375 0.1875,-0.390625 0,-0.09375 -0.09375,-0.09375 -0.109375,-0.09375 -0.03125,0 -0.09375,0 -0.125,0.0625 C 4.65625,-3.28125 4.25,-2.28125 3.859375,-1.28125 3.84375,-1.578125 3.84375,-2.34375 3.453125,-3.3125 3.203125,-3.921875 2.8125,-4.40625 2.125,-4.40625 c -1.25,0 -1.953125,1.515625 -1.953125,1.828125 0,0.09375 0.09375,0.09375 0.203125,0.09375 z m 0,0"
               id="id-f6c6026d-cb3f-4c47-b0c8-6821055d01fe" />
          </g>
        </g>
      </defs>
      <g
         fill="#000000"
         fill-opacity="1"
         id="id-245ae341-597e-4df9-b5c0-1046c980938c"
         transform="translate(-148.884,-130.359)">
        <g
           transform="translate(148.712,134.765)"
           id="g8701">
          <path
             d="M 0.40625,-2.53125 C 0.796875,-3.671875 1.890625,-3.6875 2,-3.6875 c 1.5,0 1.609375,1.75 1.609375,2.53125 0,0.609375 -0.046875,0.78125 -0.125,0.984375 -0.21875,0.71875 -0.515625,1.875 -0.515625,2.140625 0,0.109375 0.046875,0.171875 0.125,0.171875 0.140625,0 0.21875,-0.21875 0.328125,-0.59375 C 3.65625,0.703125 3.75,0.140625 3.78125,-0.171875 c 0.03125,-0.125 0.046875,-0.25 0.09375,-0.390625 0.3125,-0.984375 0.953125,-2.46875 1.34375,-3.25 0.078125,-0.125 0.1875,-0.34375 0.1875,-0.390625 0,-0.09375 -0.09375,-0.09375 -0.109375,-0.09375 -0.03125,0 -0.09375,0 -0.125,0.0625 C 4.65625,-3.28125 4.25,-2.28125 3.859375,-1.28125 3.84375,-1.578125 3.84375,-2.34375 3.453125,-3.3125 3.203125,-3.921875 2.8125,-4.40625 2.125,-4.40625 c -1.25,0 -1.953125,1.515625 -1.953125,1.828125 0,0.09375 0.09375,0.09375 0.203125,0.09375 z m 0,0"
             id="id-e02fc6cc-5ba2-402f-b4d9-a13208cc655f" />
        </g>
      </g>
    </g>
    <text
       xml:space="preserve"
       style="font-size:3.52778px;line-height:1.25;font-family:'DejaVu Serif';-inkscape-font-specification:'DejaVu Serif, Normal';letter-spacing:0px;stroke-width:0.264583"
       x="21.343004"
       y="59.306274"
       id="text9908"><tspan
         sodipodi:role="line"
         id="tspan9906"
         style="font-size:3.52778px;stroke-width:0.264583"
         x="21.343004"
         y="59.306274">nucleus</tspan></text>
    <path
       style="fill:none;stroke:#000000;stroke-width:0.38747;stroke-linecap:butt;stroke-linejoin:miter;stroke-dasharray:0.38747001,0.38747001;stroke-opacity:1;stroke-dashoffset:0"
       d="m 33.17806,40.80844 5.161009,-5.445934"
       id="path341" />
    <g
       transform="matrix(0.352778,0,0,0.352778,36.287243,38.385217)"
       ns1:version="1.6.0"
       ns1:texconverter="pdflatex"
       ns1:pdfconverter="inkscape"
       ns1:text="$q$"
       ns1:preamble="/usr/share/inkscape/extensions/textext/default_packages.tex"
       ns1:scale="1.0"
       ns1:alignment="middle center"
       ns1:stroke-to-path="0"
       ns1:inkscapeversion="1.2.1"
       ns1:jacobian_sqrt="0.352778"
       id="g1479">
      <defs
         id="id-a4605fb1-5673-4b9c-b326-362d62e8df87">
        <g
           id="id-1175589f-d88a-4002-80dd-da233537cd52">
          <g
             id="id-a1b50617-cab0-440b-b1d3-d9a115726615" />
          <g
             id="id-86e5b9d7-21a3-4c63-9ff7-ae52e02a5d2a">
            <path
               d="m 4.5,-4.296875 c 0,-0.046875 -0.03125,-0.09375 -0.09375,-0.09375 -0.109375,0 -0.515625,0.390625 -0.671875,0.6875 C 3.515625,-4.25 3.125,-4.40625 2.796875,-4.40625 c -1.171875,0 -2.390625,1.46875 -2.390625,2.921875 0,0.96875 0.578125,1.59375 1.3125,1.59375 0.421875,0 0.8125,-0.234375 1.171875,-0.59375 -0.09375,0.34375 -0.421875,1.6875 -0.453125,1.78125 -0.078125,0.28125 -0.15625,0.3125 -0.71875,0.328125 -0.125,0 -0.21875,0 -0.21875,0.203125 0,0 0,0.109375 0.125,0.109375 0.3125,0 0.671875,-0.03125 1,-0.03125 0.328125,0 0.6875,0.03125 1.03125,0.03125 0.046875,0 0.171875,0 0.171875,-0.203125 C 3.828125,1.625 3.734375,1.625 3.5625,1.625 3.09375,1.625 3.09375,1.5625 3.09375,1.46875 3.09375,1.390625 3.109375,1.328125 3.125,1.25 Z m -2.75,4.1875 c -0.609375,0 -0.640625,-0.765625 -0.640625,-0.9375 0,-0.484375 0.28125,-1.5625 0.453125,-1.984375 0.3125,-0.734375 0.828125,-1.15625 1.234375,-1.15625 0.65625,0 0.796875,0.8125 0.796875,0.875 0,0.0625 -0.546875,2.25 -0.578125,2.28125 C 2.859375,-0.75 2.296875,-0.109375 1.75,-0.109375 Z m 0,0"
               id="id-86a64281-65d2-4448-a613-c38230653b72" />
          </g>
        </g>
      </defs>
      <g
         fill="#000000"
         fill-opacity="1"
         id="id-77d499c6-ff04-4078-b2d7-f261f398d6a4"
         transform="translate(-149.118,-130.359)">
        <g
           transform="translate(148.712,134.765)"
           id="g1476">
          <path
             d="m 4.5,-4.296875 c 0,-0.046875 -0.03125,-0.09375 -0.09375,-0.09375 -0.109375,0 -0.515625,0.390625 -0.671875,0.6875 C 3.515625,-4.25 3.125,-4.40625 2.796875,-4.40625 c -1.171875,0 -2.390625,1.46875 -2.390625,2.921875 0,0.96875 0.578125,1.59375 1.3125,1.59375 0.421875,0 0.8125,-0.234375 1.171875,-0.59375 -0.09375,0.34375 -0.421875,1.6875 -0.453125,1.78125 -0.078125,0.28125 -0.15625,0.3125 -0.71875,0.328125 -0.125,0 -0.21875,0 -0.21875,0.203125 0,0 0,0.109375 0.125,0.109375 0.3125,0 0.671875,-0.03125 1,-0.03125 0.328125,0 0.6875,0.03125 1.03125,0.03125 0.046875,0 0.171875,0 0.171875,-0.203125 C 3.828125,1.625 3.734375,1.625 3.5625,1.625 3.09375,1.625 3.09375,1.5625 3.09375,1.46875 3.09375,1.390625 3.109375,1.328125 3.125,1.25 Z m -2.75,4.1875 c -0.609375,0 -0.640625,-0.765625 -0.640625,-0.9375 0,-0.484375 0.28125,-1.5625 0.453125,-1.984375 0.3125,-0.734375 0.828125,-1.15625 1.234375,-1.15625 0.65625,0 0.796875,0.8125 0.796875,0.875 0,0.0625 -0.546875,2.25 -0.578125,2.28125 C 2.859375,-0.75 2.296875,-0.109375 1.75,-0.109375 Z m 0,0"
             id="id-5e1939ca-d482-42e4-8826-6260a234a59f" />
        </g>
      </g>
    </g>
  </g>
</svg>
