<?xml version="1.0" encoding="UTF-8" standalone="no"?>
<!-- Created with Inkscape (http://www.inkscape.org/) -->

<svg
   version="1.1"
   id="svg1937"
   xml:space="preserve"
   width="600.36713"
   height="154.09836"
   viewBox="0 0 600.36713 154.09836"
   sodipodi:docname="meson_bildchen.svg"
   inkscape:version="1.1 (c4e8f9e, 2021-05-24)"
   xmlns:inkscape="http://www.inkscape.org/namespaces/inkscape"
   xmlns:sodipodi="http://sodipodi.sourceforge.net/DTD/sodipodi-0.dtd"
   xmlns="http://www.w3.org/2000/svg"
   xmlns:svg="http://www.w3.org/2000/svg"
   xmlns:ns10="http://www.iki.fi/pav/software/textext/"><defs
     id="defs1941"><clipPath
       clipPathUnits="userSpaceOnUse"
       id="clipPath1957"><path
         d="M 0,0 H 451 V 116 H 0 Z"
         id="path1955" /></clipPath><clipPath
       clipPathUnits="userSpaceOnUse"
       id="clipPath1967"><path
         d="M 0,0 H 449.91 V 108.977 H 0 Z"
         id="path1965" /></clipPath><clipPath
       clipPathUnits="userSpaceOnUse"
       id="clipPath1977"><path
         d="M 0,0 H 451 V 116 H 0 Z"
         id="path1975" /></clipPath><g
       id="id-8245e7ae-83b4-43bf-9271-ac51efca53f0"><symbol
         overflow="visible"
         id="id-b436fc84-2027-4bf5-85e3-d1f0217af3f4"><path
           style="stroke:none;stroke-width:0"
           d=""
           id="id-6e12d7b5-c7d2-4e4c-8098-ce75c6e84c09" /></symbol><symbol
         overflow="visible"
         id="id-a9737756-efe6-41ff-88d1-2682ee75277d"><path
           style="stroke:none;stroke-width:0"
           d="m 2.640625,-3.71875 h 1.125 C 3.4375,-2.25 3.34375,-1.8125 3.34375,-1.140625 c 0,0.140625 0,0.40625 0.078125,0.75 0.109375,0.4375 0.21875,0.5 0.359375,0.5 0.203125,0 0.421875,-0.171875 0.421875,-0.375 0,-0.0625 0,-0.078125 -0.0625,-0.21875 -0.296875,-0.71875 -0.296875,-1.375 -0.296875,-1.65625 0,-0.515625 0.078125,-1.0625 0.1875,-1.578125 h 1.125 c 0.140625,0 0.5,0 0.5,-0.34375 0,-0.234375 -0.21875,-0.234375 -0.40625,-0.234375 H 1.90625 c -0.21875,0 -0.59375,0 -1.03125,0.46875 -0.34375,0.390625 -0.609375,0.84375 -0.609375,0.890625 0,0.015625 0,0.109375 0.125,0.109375 0.078125,0 0.09375,-0.046875 0.15625,-0.125 C 1.03125,-3.71875 1.609375,-3.71875 1.8125,-3.71875 H 2.375 C 2.0625,-2.515625 1.53125,-1.3125 1.109375,-0.40625 1.03125,-0.25 1.03125,-0.234375 1.03125,-0.15625 c 0,0.1875 0.15625,0.265625 0.28125,0.265625 0.296875,0 0.375,-0.28125 0.5,-0.640625 C 1.953125,-1 1.953125,-1.015625 2.078125,-1.515625 Z m 0,0"
           id="id-d90f2901-6573-44e4-a705-7bd18fe7897f" /></symbol><symbol
         overflow="visible"
         id="id-00285d2a-25d8-461f-9483-b72109c3744f"><path
           style="stroke:none;stroke-width:0"
           d="m 2.03125,-0.015625 c 0,-0.65625 -0.25,-1.046875 -0.640625,-1.046875 -0.328125,0 -0.53125,0.25 -0.53125,0.53125 C 0.859375,-0.265625 1.0625,0 1.390625,0 1.5,0 1.640625,-0.046875 1.734375,-0.125 1.765625,-0.15625 1.78125,-0.15625 1.78125,-0.15625 c 0.015625,0 0.015625,0 0.015625,0.140625 0,0.75 -0.34375,1.34375 -0.671875,1.671875 -0.109375,0.109375 -0.109375,0.125 -0.109375,0.15625 0,0.078125 0.046875,0.109375 0.09375,0.109375 0.109375,0 0.921875,-0.765625 0.921875,-1.9375 z m 0,0"
           id="id-5986d44b-4bef-441f-ad07-c6256daf2677" /></symbol><symbol
         overflow="visible"
         id="id-012ed81d-e72d-45b7-b89b-c391e0bb5e71"><path
           style="stroke:none;stroke-width:0"
           d="M 4.859375,-2.765625 C 4.921875,-2.9375 4.9375,-3.078125 4.9375,-3.34375 c 0,-0.640625 -0.390625,-1.0625 -1.140625,-1.0625 -0.78125,0 -1.296875,0.515625 -1.546875,0.875 -0.046875,-0.578125 -0.46875,-0.875 -0.921875,-0.875 -0.453125,0 -0.640625,0.390625 -0.734375,0.5625 C 0.421875,-3.5 0.296875,-2.90625 0.296875,-2.875 c 0,0.109375 0.09375,0.109375 0.109375,0.109375 0.109375,0 0.109375,-0.015625 0.171875,-0.234375 0.171875,-0.703125 0.375,-1.1875 0.734375,-1.1875 0.15625,0 0.296875,0.078125 0.296875,0.453125 0,0.21875 -0.03125,0.328125 -0.15625,0.84375 L 0.875,-0.59375 c -0.03125,0.15625 -0.09375,0.390625 -0.09375,0.4375 0,0.171875 0.140625,0.265625 0.296875,0.265625 0.125,0 0.296875,-0.078125 0.375,-0.28125 0,-0.015625 0.125,-0.484375 0.1875,-0.734375 l 0.21875,-0.890625 C 1.90625,-2.03125 1.96875,-2.25 2.03125,-2.46875 2.046875,-2.53125 2.125,-2.859375 2.140625,-2.921875 2.15625,-3.015625 2.46875,-3.5625 2.8125,-3.84375 3.03125,-4 3.34375,-4.1875 3.765625,-4.1875 c 0.4375,0 0.546875,0.34375 0.546875,0.703125 0,0.046875 0,0.21875 -0.109375,0.625 l -1.125,4.578125 c -0.03125,0.125 -0.03125,0.140625 -0.03125,0.171875 0,0.140625 0.109375,0.265625 0.265625,0.265625 0.3125,0 0.390625,-0.296875 0.421875,-0.40625 z m 0,0"
           id="id-0375c114-6f9f-42cc-80ad-303b093d4090" /></symbol><symbol
         overflow="visible"
         id="id-47446665-fb5d-4988-8d62-89a8d7f2a815"><path
           style="stroke:none;stroke-width:0"
           d="m 1.90625,-0.53125 c 0,-0.28125 -0.234375,-0.53125 -0.515625,-0.53125 -0.296875,0 -0.53125,0.25 -0.53125,0.53125 C 0.859375,-0.234375 1.09375,0 1.390625,0 1.671875,0 1.90625,-0.234375 1.90625,-0.53125 Z m 0,0"
           id="id-edf39007-fd6d-47b5-9397-6abdd61ddedb" /></symbol><symbol
         overflow="visible"
         id="id-382e30af-9863-433b-99ca-5dad2415961b"><path
           style="stroke:none;stroke-width:0"
           d=""
           id="id-057ab075-faf9-400e-a495-bdd88a891cdf" /></symbol><symbol
         overflow="visible"
         id="id-a4df6eec-2a0b-4fc9-bc60-c439aede40f8"><path
           style="stroke:none;stroke-width:0"
           d="m 2.015625,-3.296875 c 0.0625,-0.109375 0.0625,-0.171875 0.0625,-0.21875 0,-0.21875 -0.1875,-0.375 -0.40625,-0.375 -0.265625,0 -0.34375,0.21875 -0.375,0.328125 L 0.375,-0.546875 c -0.015625,0.015625 -0.046875,0.09375 -0.046875,0.109375 0,0.078125 0.21875,0.15625 0.28125,0.15625 0.046875,0 0.046875,-0.015625 0.09375,-0.125 z m 0,0"
           id="id-6b0009d4-8ba1-4130-b7cb-48195aeec590" /></symbol></g></defs><sodipodi:namedview
     id="namedview1939"
     pagecolor="#ffffff"
     bordercolor="#666666"
     borderopacity="1.0"
     inkscape:pageshadow="2"
     inkscape:pageopacity="0.0"
     inkscape:pagecheckerboard="0"
     showgrid="false"
     inkscape:zoom="1.0940185"
     inkscape:cx="293.87072"
     inkscape:cy="105.57408"
     inkscape:window-width="1312"
     inkscape:window-height="847"
     inkscape:window-x="0"
     inkscape:window-y="25"
     inkscape:window-maximized="0"
     inkscape:current-layer="layer1" /><g
     id="g1943"
     inkscape:groupmode="layer"
     inkscape:label="meson_bildchen"
     transform="scale(1.33333)"
     style="display:inline"><g
       id="g1945" /><g
       id="g1947"><g
         id="g1949"><g
           id="g1951"><g
             id="g1953"
             clip-path="url(#clipPath1957)"><g
               id="g1959" /><g
               id="g1961"><g
                 id="g1963"
                 clip-path="url(#clipPath1967)"><g
                   id="g1969"><g
                     id="g1971"><g
                       id="g1973"
                       clip-path="url(#clipPath1977)"><g
                         id="g1979"><g
                           id="g1981"
                           transform="scale(1,-1)"><path
                             d="m 84.082,-96.961 85.297,32.996"
                             style="fill:none;stroke:#000000;stroke-width:1.13259;stroke-linecap:butt;stroke-linejoin:miter;stroke-miterlimit:4;stroke-dasharray:none;stroke-opacity:1"
                             id="path1983" /></g><g
                           id="g1985"
                           transform="scale(1,-1)"><path
                             d="m 258.867,-63.512 86.41,-31.527"
                             style="fill:none;stroke:#000000;stroke-width:1.22902;stroke-linecap:butt;stroke-linejoin:miter;stroke-miterlimit:4;stroke-dasharray:none;stroke-opacity:1"
                             id="path1987" /></g><path
                           d="m 96.953,23.801 0.25,0.129 0.25,0.113 0.246,0.109 0.516,0.18 0.242,0.078 0.254,0.07 0.254,0.055 0.254,0.047 0.242,0.039 0.258,0.035 0.242,0.024 0.25,0.019 0.254,0.012 0.246,0.008 0.242,-0.004 0.238,-0.008 0.243,-0.012 0.242,-0.015 0.238,-0.02 0.465,-0.055 0.465,-0.062 0.445,-0.082 0.441,-0.082 0.418,-0.086 0.411,-0.094 c 0.144,-0.035 0.269,-0.09 0.339,-0.207 0.157,-0.254 -0.007,-0.621 -0.367,-0.812 -0.187,-0.102 -0.41,-0.164 -0.609,-0.118 -2.317,0.532 -4.434,0.84 -6.391,-0.207 C 95.613,21.828 94.82,19.957 94.145,17.82 93.5,15.852 92.582,13.312 89.922,11.891 87.293,10.477 84.473,11.012 82.324,11.48 c -0.144,0.047 -0.25,0.145 -0.308,0.243 -0.168,0.273 -0.032,0.597 0.355,0.804 0.207,0.114 0.426,0.161 0.621,0.114 2.317,-0.532 4.442,-0.825 6.352,0.199 1.918,1.023 2.754,2.906 3.422,5.043 0.648,1.969 1.554,4.508 4.187,5.918 z"
                           style="fill:#000000;fill-opacity:1;fill-rule:nonzero;stroke:none"
                           id="path1989" /><path
                           d="m 118.609,35.41 0.25,0.125 0.258,0.121 0.242,0.106 0.258,0.093 0.25,0.09 0.25,0.078 0.254,0.067 0.254,0.055 0.246,0.05 0.25,0.043 0.504,0.059 0.25,0.015 0.25,0.012 0.238,0.004 h 0.25 l 0.239,-0.008 0.242,-0.011 0.242,-0.016 0.238,-0.02 0.465,-0.05 0.465,-0.067 0.445,-0.078 0.442,-0.086 0.418,-0.09 0.41,-0.086 c 0.14,-0.039 0.273,-0.093 0.343,-0.211 0.153,-0.253 -0.011,-0.617 -0.371,-0.808 -0.187,-0.106 -0.41,-0.168 -0.609,-0.121 -2.316,0.535 -4.441,0.836 -6.398,-0.207 -1.907,-1.028 -2.704,-2.899 -3.375,-5.035 -0.657,-1.973 -1.567,-4.504 -4.223,-5.93 -2.633,-1.414 -5.453,-0.879 -7.606,-0.41 -0.148,0.043 -0.246,0.144 -0.304,0.242 -0.168,0.273 -0.031,0.598 0.355,0.805 0.199,0.109 0.43,0.164 0.625,0.113 2.313,-0.535 4.438,-0.828 6.348,0.199 1.918,1.027 2.758,2.91 3.426,5.039 0.644,1.973 1.55,4.508 4.179,5.918 z"
                           style="fill:#000000;fill-opacity:1;fill-rule:nonzero;stroke:none"
                           id="path1991" /><path
                           d="m 140.27,47.023 0.25,0.129 0.257,0.118 0.243,0.109 0.257,0.09 0.25,0.086 0.254,0.082 0.246,0.066 0.258,0.059 0.25,0.043 0.246,0.043 0.504,0.062 0.25,0.016 0.246,0.008 0.242,0.011 0.247,-0.007 h 0.242 l 0.242,-0.012 0.484,-0.039 0.465,-0.055 0.453,-0.066 0.453,-0.075 0.438,-0.086 0.422,-0.085 0.41,-0.09 c 0.141,-0.043 0.273,-0.094 0.344,-0.211 0.156,-0.254 -0.012,-0.617 -0.368,-0.813 -0.199,-0.101 -0.41,-0.16 -0.621,-0.117 -2.308,0.535 -4.433,0.84 -6.386,-0.211 -1.91,-1.023 -2.707,-2.89 -3.387,-5.035 -0.649,-1.965 -1.559,-4.5 -4.215,-5.926 -2.641,-1.414 -5.453,-0.879 -7.605,-0.41 -0.149,0.043 -0.25,0.145 -0.313,0.242 -0.168,0.27 -0.019,0.598 0.363,0.809 0.204,0.105 0.43,0.16 0.625,0.109 2.309,-0.535 4.434,-0.828 6.348,0.199 1.918,1.028 2.75,2.907 3.426,5.043 0.648,1.969 1.555,4.508 4.18,5.914 z"
                           style="fill:#000000;fill-opacity:1;fill-rule:nonzero;stroke:none"
                           id="path1993" /><path
                           d="m 161.93,58.637 0.25,0.129 0.25,0.113 0.254,0.113 0.254,0.094 0.25,0.086 0.253,0.078 0.247,0.066 0.257,0.059 0.25,0.047 0.25,0.043 0.5,0.058 0.25,0.016 0.246,0.008 0.243,0.008 h 0.246 l 0.242,-0.008 0.246,-0.012 0.234,-0.019 0.246,-0.016 0.461,-0.051 0.457,-0.066 0.454,-0.078 0.437,-0.09 0.422,-0.082 0.406,-0.09 c 0.149,-0.043 0.277,-0.094 0.348,-0.211 0.156,-0.25 -0.012,-0.617 -0.367,-0.809 -0.2,-0.105 -0.418,-0.168 -0.621,-0.125 -2.317,0.536 -4.434,0.844 -6.387,-0.203 -1.918,-1.031 -2.707,-2.898 -3.387,-5.035 -0.648,-1.972 -1.555,-4.504 -4.215,-5.93 -2.64,-1.414 -5.449,-0.875 -7.605,-0.406 -0.149,0.039 -0.25,0.137 -0.309,0.235 -0.168,0.273 -0.031,0.597 0.36,0.808 0.203,0.11 0.429,0.164 0.625,0.113 2.308,-0.535 4.433,-0.828 6.347,0.2 1.918,1.027 2.754,2.906 3.426,5.043 0.648,1.968 1.555,4.507 4.18,5.914 z"
                           style="fill:#000000;fill-opacity:1;fill-rule:nonzero;stroke:none"
                           id="path1995" /><g
                           id="g1997"
                           transform="scale(1,-1)"><path
                             d="m 259.359,-58.031 85.829,45.125"
                             style="fill:none;stroke:#000000;stroke-width:1.32853;stroke-linecap:butt;stroke-linejoin:miter;stroke-miterlimit:4;stroke-dasharray:5.31413, 5.31413;stroke-dashoffset:0;stroke-opacity:1"
                             id="path1999" /></g><g
                           id="g2001"
                           transform="scale(1,-1)"><path
                             d="m 169.922,-58.078 h 89.266 v -5.914 h -89.266 z"
                             style="fill:#ffffff;fill-opacity:1;fill-rule:nonzero;stroke:#000000;stroke-width:1.06589;stroke-linecap:butt;stroke-linejoin:miter;stroke-miterlimit:4;stroke-dasharray:none;stroke-opacity:1"
                             id="path2003" /></g><text
                           transform="translate(305.70587,43.079542)"
                           style="font-style:italic;font-variant:normal;font-size:15.3765px;font-family:'Times New Roman';-inkscape-font-specification:TimesNewRomanPS-ItalicMT;writing-mode:lr-tb;fill:#000000;fill-opacity:1;fill-rule:nonzero;stroke:none"
                           id="text2007"><tspan
                             x="0"
                             y="0"
                             id="tspan2005">M</tspan></text><text
                           transform="translate(320.55959,43.079542)"
                           style="font-variant:normal;font-weight:normal;font-size:15.3765px;font-family:'Times New Roman';-inkscape-font-specification:TimesNewRomanPSMT;writing-mode:lr-tb;fill:#000000;fill-opacity:1;fill-rule:nonzero;stroke:none"
                           id="text2011"><tspan
                             x="0 8.6569815"
                             y="0"
                             sodipodi:role="line"
                             id="tspan2009">= </tspan></text><path
                           d="m 333.77,37.203 c 0.55,-0.672 0.792,-0.812 1.425,-0.812 h 0.59 l -0.816,2.867 c -0.121,0.367 -0.344,0.656 -0.852,1.058 -0.472,0.372 -0.613,0.571 -0.652,0.856 -0.063,0.387 0.18,0.715 0.59,0.715 0.406,0 0.773,-0.285 1.039,-0.86 0.16,-0.324 0.57,-1.648 0.894,-2.972 l 0.45,-1.664 h 1.402 c -0.324,1.015 -0.668,2.418 -0.793,3.152 -0.246,1.465 0.101,2.344 0.894,2.344 0.512,0 1.02,-0.344 1.43,-0.961 0.242,-0.364 0.344,-0.61 0.488,-1.262 h -0.328 c -0.16,0.633 -0.465,0.957 -0.894,0.957 -0.246,0 -0.492,-0.183 -0.59,-0.469 -0.082,-0.222 -0.082,-0.425 -0.02,-0.851 0.18,-1 0.426,-2.199 0.649,-2.91 h 1.648 l 0.184,-1.164 h -4.539 c -0.692,0 -0.981,0.082 -1.407,0.445 -0.425,0.371 -0.691,0.754 -1.058,1.531 z"
                           style="fill:#000000;fill-opacity:1;fill-rule:nonzero;stroke:none"
                           id="path2013" /><path
                           d="m 343.25,30.516 c -0.527,0 -0.934,0.164 -1.281,0.488 -0.571,0.547 -0.938,1.648 -0.938,2.769 0,1.055 0.324,2.176 0.774,2.727 0.367,0.406 0.855,0.652 1.406,0.652 0.488,0 0.894,-0.164 1.242,-0.511 0.57,-0.528 0.938,-1.649 0.938,-2.805 0,-1.977 -0.879,-3.32 -2.141,-3.32 z m -0.039,0.242 c 0.812,0 1.242,1.101 1.242,3.097 0,2.012 -0.41,3.032 -1.242,3.032 -0.836,0 -1.242,-1.02 -1.242,-3.012 0,-2.039 0.426,-3.117 1.242,-3.117 z"
                           style="fill:#000000;fill-opacity:1;fill-rule:nonzero;stroke:none"
                           id="path2015" /><path
                           d="m 351.965,32.477 c 0.058,-0.184 0.058,-0.223 0.058,-0.247 0,-0.136 -0.101,-0.261 -0.246,-0.261 -0.101,0 -0.183,0.043 -0.222,0.125 l -4.52,12.375 c -0.062,0.183 -0.062,0.226 -0.062,0.25 0,0.14 0.121,0.265 0.265,0.265 0.164,0 0.207,-0.105 0.285,-0.332 z"
                           style="fill:#000000;fill-opacity:1;fill-rule:nonzero;stroke:none"
                           id="path2017" /><path
                           d="m 354.301,41.723 h 1.137 l 0.796,-4.727 c 0.59,-0.711 1.098,-1.035 1.672,-1.035 0.731,0 1.098,0.508 0.953,1.344 l -0.953,5.699 c -0.066,0.449 -0.086,0.941 0,1.609 h 1.219 c -0.102,-0.652 -0.141,-0.976 -0.082,-1.304 l 1.078,-6.371 c 0.168,-1.079 -0.469,-1.876 -1.547,-1.876 -0.773,0 -1.383,0.348 -2.238,1.329 0,-0.391 -0.039,-0.575 -0.125,-0.758 -0.18,-0.285 -0.527,-0.469 -0.914,-0.469 -0.508,0 -1.059,0.328 -1.406,0.836 -0.18,0.328 -0.282,0.59 -0.368,1.082 h 0.329 c 0.203,-0.816 0.449,-1.184 0.753,-1.184 0.387,0 0.59,0.493 0.469,1.204 z"
                           style="fill:#000000;fill-opacity:1;fill-rule:nonzero;stroke:none"
                           id="path2019" /><text
                           transform="translate(303.82438,72.616056)"
                           style="font-style:italic;font-variant:normal;font-size:15.3765px;font-family:'Times New Roman';-inkscape-font-specification:TimesNewRomanPS-ItalicMT;writing-mode:lr-tb;fill:#000000;fill-opacity:1;fill-rule:nonzero;stroke:none"
                           id="text2025"><tspan
                             x="0"
                             y="0"
                             id="tspan2021">p</tspan><tspan
                             x="-200.65762"
                             y="9.2258978"
                             id="tspan2023">p</tspan></text><path
                           d="m 114.59,37.156 -3.317,6.719 -0.058,-3.008 c -0.094,-2.972 -0.555,-3.957 -1.871,-3.957 -0.586,0 -1.168,0.278 -1.567,0.707 -0.523,0.613 -0.707,1.106 -1.015,2.762 l -0.032,0.246 h 0.434 c 0.121,-0.523 0.215,-0.828 0.336,-1.105 0.305,-0.614 0.859,-1.012 1.41,-1.012 0.524,0 0.86,0.336 1.074,1.137 0.309,1.011 0.524,2.789 0.493,4.23 l -0.059,1.629 c -0.066,0.215 -0.402,0.828 -0.953,1.902 -0.582,1.074 -0.797,1.625 -0.891,2.301 -0.152,0.922 0.153,1.535 0.77,1.535 0.793,0 1.504,-1.012 1.777,-2.578 0.094,-0.613 0.152,-1.531 0.152,-3.012 l 5.403,-8.496 z"
                           style="fill:#000000;fill-opacity:1;fill-rule:nonzero;stroke:none"
                           id="path2027" /><text
                           transform="translate(182.70037,50.647329)"
                           style="font-style:italic;font-variant:normal;font-size:15.3765px;font-family:'Times New Roman';-inkscape-font-specification:TimesNewRomanPS-ItalicMT;writing-mode:lr-tb;fill:#000000;fill-opacity:1;fill-rule:nonzero;stroke:none"
                           id="text2031"><tspan
                             x="0"
                             y="0"
                             id="tspan2029">J</tspan></text><text
                           transform="translate(189.51769,53.722635)"
                           style="font-variant:normal;font-weight:normal;font-size:7.99579px;font-family:'Times New Roman';-inkscape-font-specification:TimesNewRomanPSMT;writing-mode:lr-tb;fill:#000000;fill-opacity:1;fill-rule:nonzero;stroke:none"
                           id="text2035"><tspan
                             x="0 2.6625984 6.2047338 9.3150969"
                             y="0"
                             sodipodi:role="line"
                             id="tspan2033">res.</tspan></text><text
                           transform="translate(200.83986,50.647329)"
                           style="font-style:italic;font-variant:normal;font-size:15.3765px;font-family:'Times New Roman';-inkscape-font-specification:TimesNewRomanPS-ItalicMT;writing-mode:lr-tb;fill:#000000;fill-opacity:1;fill-rule:nonzero;stroke:none"
                           id="text2039"><tspan
                             x="0 3.8441305 7.688261"
                             y="0"
                             sodipodi:role="line"
                             id="tspan2037">, P</tspan></text><text
                           transform="translate(217.92822,53.722635)"
                           style="font-variant:normal;font-weight:normal;font-size:7.99579px;font-family:'Times New Roman';-inkscape-font-specification:TimesNewRomanPSMT;writing-mode:lr-tb;fill:#000000;fill-opacity:1;fill-rule:nonzero;stroke:none"
                           id="text2043"><tspan
                             x="0 2.6625984 6.2047338 9.3150969"
                             y="0"
                             sodipodi:role="line"
                             id="tspan2041">res.</tspan></text><text
                           transform="translate(229.25039,50.647329)"
                           style="font-style:italic;font-variant:normal;font-size:15.3765px;font-family:'Times New Roman';-inkscape-font-specification:TimesNewRomanPS-ItalicMT;writing-mode:lr-tb;fill:#000000;fill-opacity:1;fill-rule:nonzero;stroke:none"
                           id="text2047"><tspan
                             x="0 3.8441305 7.688261"
                             y="0"
                             sodipodi:role="line"
                             id="tspan2045">, I</tspan></text><text
                           transform="translate(242.07416,53.722635)"
                           style="font-variant:normal;font-weight:normal;font-size:7.99579px;font-family:'Times New Roman';-inkscape-font-specification:TimesNewRomanPSMT;writing-mode:lr-tb;fill:#000000;fill-opacity:1;fill-rule:nonzero;stroke:none"
                           id="text2051"><tspan
                             x="0 2.6625984 6.2047338 9.3150969"
                             y="0"
                             sodipodi:role="line"
                             id="tspan2049">res.</tspan></text><path
                           d="m 208.59,68.41 h -3.41 v 0.293 c 0.968,0.082 1.207,0.242 1.207,0.859 0,0.215 -0.051,0.403 -0.16,0.754 -0.028,0.051 -0.028,0.133 -0.028,0.133 l -1.773,6.528 -3.547,-8.567 h -2.766 v 0.293 c 0.805,0.055 1.153,0.27 1.477,0.942 l -2.043,7.144 c -0.645,2.203 -0.777,2.418 -1.774,2.555 v 0.265 h 3.415 v -0.265 c -0.887,-0.082 -1.211,-0.27 -1.211,-0.754 0,-0.215 0.054,-0.563 0.164,-0.914 l 1.929,-7.227 3.953,9.434 h 0.321 l 2.445,-8.629 c 0.649,-2.227 0.727,-2.309 1.801,-2.551 z"
                           style="fill:#000000;fill-opacity:1;fill-rule:nonzero;stroke:none"
                           id="path2053" /><path
                           d="m 212.07,67.969 c 0,-0.164 0,-0.457 -0.324,-0.457 -0.211,0 -0.375,0.16 -0.32,0.32 v 0.16 l 0.16,1.965 -1.609,-1.184 c -0.11,-0.054 -0.137,-0.082 -0.243,-0.082 -0.16,0 -0.324,0.161 -0.324,0.348 0,0.219 0.11,0.27 0.242,0.324 l 1.801,0.86 -1.746,0.859 c -0.215,0.082 -0.297,0.133 -0.297,0.324 0,0.188 0.164,0.375 0.324,0.375 0.106,0 0.133,0 0.43,-0.242 l 1.422,-1.047 -0.188,2.149 c 0,0.269 0.243,0.324 0.348,0.324 0.137,0 0.324,-0.082 0.324,-0.324 l -0.187,-2.149 1.64,1.184 c 0.106,0.078 0.133,0.105 0.215,0.105 0.188,0 0.348,-0.187 0.348,-0.375 0,-0.191 -0.109,-0.242 -0.27,-0.324 -0.754,-0.375 -0.777,-0.375 -1.796,-0.859 l 1.769,-0.832 c 0.188,-0.106 0.297,-0.161 0.297,-0.352 0,-0.187 -0.16,-0.348 -0.348,-0.348 -0.082,0 -0.109,0 -0.429,0.243 l -1.426,1.023 z"
                           style="fill:#000000;fill-opacity:1;fill-rule:nonzero;stroke:none"
                           id="path2055" /><path
                           d="m 223.293,67.414 c 0.082,-0.246 0.082,-0.297 0.082,-0.324 0,-0.184 -0.133,-0.348 -0.324,-0.348 -0.133,0 -0.239,0.055 -0.293,0.164 l -5.965,16.332 c -0.082,0.242 -0.082,0.297 -0.082,0.321 0,0.187 0.16,0.347 0.351,0.347 0.215,0 0.27,-0.133 0.376,-0.426 z"
                           style="fill:#000000;fill-opacity:1;fill-rule:nonzero;stroke:none"
                           id="path2057" /><path
                           d="m 224.445,79.609 h 10.317 l -4.809,-11.793 z m 1.207,-0.886 3.653,-7.844 3.254,7.844 z"
                           style="fill:#000000;fill-opacity:1;fill-rule:nonzero;stroke:none"
                           id="path2059" /><g
                           id="g2061"
                           transform="scale(1,-1)"><path
                             d="m 179.672,-61.445 c 0,-2.602 -2.406,-4.711 -5.371,-4.711 -2.969,0 -5.375,2.109 -5.375,4.711 0,2.597 2.406,4.711 5.375,4.711 2.965,0 5.371,-2.114 5.371,-4.711 z"
                             style="fill:#000000;fill-opacity:1;fill-rule:nonzero;stroke:#000000;stroke-width:0.734139;stroke-linecap:butt;stroke-linejoin:miter;stroke-miterlimit:4;stroke-dasharray:none;stroke-opacity:1"
                             id="path2063" /></g><g
                           id="g2065"
                           transform="scale(1,-1)"><path
                             d="m 264.777,-61.445 c 0,-2.602 -2.406,-4.711 -5.375,-4.711 -2.964,0 -5.371,2.109 -5.371,4.711 0,2.597 2.407,4.711 5.371,4.711 2.969,0 5.375,-2.114 5.375,-4.711 z"
                             style="fill:#000000;fill-opacity:1;fill-rule:nonzero;stroke:#000000;stroke-width:0.734139;stroke-linecap:butt;stroke-linejoin:miter;stroke-miterlimit:4;stroke-dasharray:none;stroke-opacity:1"
                             id="path2067" /></g><path
                           d="M 4.195,1.793 H 1.41 v 0.176 c 0.625,0.047 0.785,0.144 0.785,0.433 0,0.145 -0.031,0.383 -0.113,0.641 L 0.832,7.559 C 0.641,8.152 0.574,8.199 0,8.312 V 8.473 H 5.207 L 5.801,6.648 5.59,6.582 C 5.238,7.316 4.949,7.637 4.5,7.863 4.148,8.039 3.73,8.102 2.836,8.102 2.066,8.102 1.809,8.023 1.809,7.75 1.809,7.688 1.855,7.449 1.906,7.238 L 3.172,2.723 C 3.316,2.191 3.59,2.004 4.195,1.969 Z"
                           style="fill:#000000;fill-opacity:1;fill-rule:nonzero;stroke:none"
                           id="path2069" /><path
                           d="M 9.25,6.223 7.969,8.816 7.938,7.664 C 7.902,6.496 7.727,6.125 7.215,6.125 6.992,6.125 6.766,6.223 6.605,6.398 6.414,6.641 6.336,6.832 6.223,7.457 L 6.207,7.57 h 0.16 C 6.414,7.359 6.445,7.25 6.496,7.137 6.621,6.895 6.832,6.754 7.055,6.754 c 0.191,0 0.32,0.125 0.418,0.43 0.109,0.386 0.191,1.074 0.175,1.632 L 7.633,9.457 c -0.031,0.066 -0.16,0.305 -0.371,0.723 -0.223,0.418 -0.301,0.64 -0.348,0.898 -0.051,0.352 0.063,0.574 0.301,0.574 0.305,0 0.578,-0.382 0.687,-0.976 0.036,-0.238 0.051,-0.606 0.067,-1.168 l 2.082,-3.285 z"
                           style="fill:#000000;fill-opacity:1;fill-rule:nonzero;stroke:none"
                           id="path2071" /><path
                           d="m 19.289,5.125 c 0.16,0 0.348,0 0.348,-0.191 0,-0.207 -0.188,-0.207 -0.332,-0.207 h -6.121 c -0.141,0 -0.336,0 -0.336,0.207 0,0.191 0.195,0.191 0.336,0.191 z m 0.016,1.984 c 0.144,0 0.332,0 0.332,-0.207 0,-0.191 -0.188,-0.191 -0.348,-0.191 h -6.105 c -0.141,0 -0.336,0 -0.336,0.191 0,0.207 0.195,0.207 0.336,0.207 z"
                           style="fill:#000000;fill-opacity:1;fill-rule:nonzero;stroke:none"
                           id="path2073" /><path
                           d="m 24.801,7.223 c -0.082,0.113 -0.176,0.226 -0.274,0.336 -0.32,0.433 -0.515,0.593 -0.703,0.593 -0.097,0 -0.144,-0.082 -0.144,-0.195 0,-0.062 0.031,-0.187 0.078,-0.398 0,-0.032 0.015,-0.082 0.031,-0.098 L 25.328,1.535 25.281,1.488 C 24.672,1.633 24.285,1.695 23.68,1.762 v 0.176 c 0.492,0 0.703,0.066 0.703,0.226 0,0.027 -0.016,0.094 -0.051,0.188 L 22.941,7.75 c -0.031,0.113 -0.05,0.207 -0.05,0.258 0,0.367 0.16,0.574 0.5,0.574 0.527,0 0.879,-0.285 1.554,-1.281 z"
                           style="fill:#000000;fill-opacity:1;fill-rule:nonzero;stroke:none"
                           id="path2075" /><path
                           d="M 28.805,6.223 27.523,8.816 27.496,7.664 C 27.461,6.496 27.285,6.125 26.773,6.125 c -0.222,0 -0.449,0.098 -0.609,0.273 -0.191,0.243 -0.269,0.434 -0.383,1.059 L 25.762,7.57 h 0.16 c 0.051,-0.211 0.082,-0.32 0.133,-0.433 0.125,-0.242 0.336,-0.383 0.558,-0.383 0.192,0 0.321,0.125 0.418,0.43 0.11,0.386 0.192,1.074 0.172,1.632 l -0.012,0.641 c -0.035,0.066 -0.16,0.305 -0.371,0.723 -0.222,0.418 -0.304,0.64 -0.351,0.898 -0.047,0.352 0.066,0.574 0.304,0.574 0.305,0 0.579,-0.382 0.688,-0.976 0.035,-0.238 0.051,-0.606 0.062,-1.168 l 2.082,-3.285 z"
                           style="fill:#000000;fill-opacity:1;fill-rule:nonzero;stroke:none"
                           id="path2077" /><path
                           d="m 35.156,6.117 h 2.852 c 0.144,0 0.34,0 0.34,-0.207 0,-0.195 -0.196,-0.195 -0.34,-0.195 H 35.156 V 2.852 c 0,-0.145 0,-0.34 -0.207,-0.34 -0.207,0 -0.207,0.195 -0.207,0.34 v 2.863 h -2.851 c -0.145,0 -0.336,0 -0.336,0.195 0,0.207 0.191,0.207 0.336,0.207 h 2.851 v 2.867 c 0,0.145 0,0.336 0.207,0.336 0.207,0 0.207,-0.191 0.207,-0.336 z"
                           style="fill:#000000;fill-opacity:1;fill-rule:nonzero;stroke:none"
                           id="path2079" /><path
                           d="m 45.121,3.684 0.402,-2.036 h -0.242 c -0.144,0.223 -0.226,0.274 -0.449,0.274 -0.125,0 -0.238,-0.031 -0.48,-0.113 -0.223,-0.098 -0.543,-0.145 -0.864,-0.145 -1.058,0 -1.812,0.707 -1.812,1.715 0,0.547 0.144,0.848 0.754,1.488 0.097,0.098 0.222,0.242 0.402,0.434 0.191,0.191 0.336,0.351 0.398,0.433 0.481,0.496 0.61,0.766 0.61,1.2 0,0.769 -0.563,1.363 -1.313,1.363 -0.851,0 -1.492,-0.723 -1.492,-1.699 0,-0.082 0.016,-0.16 0.016,-0.223 L 40.859,6.34 40.508,8.633 h 0.176 c 0.082,-0.242 0.191,-0.336 0.402,-0.336 0.109,0 0.254,0.031 0.527,0.125 0.465,0.176 0.739,0.226 1.059,0.226 1.168,0 2.062,-0.878 2.062,-2.035 0,-0.672 -0.238,-1.058 -1.148,-2 -0.934,-0.929 -1.012,-1.074 -1.012,-1.57 0,-0.641 0.434,-1.039 1.121,-1.039 0.383,0 0.692,0.125 0.914,0.383 0.223,0.258 0.305,0.59 0.321,1.281 z"
                           style="fill:#000000;fill-opacity:1;fill-rule:nonzero;stroke:none"
                           id="path2081" /><path
                           d="M 48.93,6.223 47.648,8.816 47.617,7.664 C 47.582,6.496 47.41,6.125 46.895,6.125 c -0.223,0 -0.446,0.098 -0.606,0.273 -0.195,0.243 -0.273,0.434 -0.387,1.059 L 45.887,7.57 h 0.16 c 0.047,-0.211 0.082,-0.32 0.129,-0.433 0.125,-0.242 0.336,-0.383 0.558,-0.383 0.196,0 0.321,0.125 0.418,0.43 0.11,0.386 0.192,1.074 0.176,1.632 l -0.016,0.641 c -0.031,0.066 -0.16,0.305 -0.371,0.723 -0.222,0.418 -0.3,0.64 -0.351,0.898 -0.047,0.352 0.066,0.574 0.305,0.574 0.304,0 0.578,-0.382 0.687,-0.976 0.035,-0.238 0.051,-0.606 0.066,-1.168 L 49.73,6.223 Z"
                           style="fill:#000000;fill-opacity:1;fill-rule:nonzero;stroke:none"
                           id="path2083" /><path
                           d="m 50.531,9.914 c 0.688,-0.336 1.137,-0.961 1.137,-1.57 0,-0.512 -0.352,-0.914 -0.816,-0.914 -0.352,0 -0.594,0.242 -0.594,0.578 0,0.336 0.222,0.527 0.594,0.527 0.062,0 0.144,-0.015 0.191,-0.015 0.078,-0.032 0.078,-0.032 0.098,-0.032 0.078,0 0.14,0.063 0.14,0.145 0,0.336 -0.285,0.703 -0.847,1.086 z"
                           style="fill:#000000;fill-opacity:1;fill-rule:nonzero;stroke:none"
                           id="path2085" /><path
                           d="M 4.871,15.938 5.27,13.902 H 5.031 c -0.144,0.227 -0.226,0.274 -0.453,0.274 -0.125,0 -0.238,-0.035 -0.48,-0.114 -0.223,-0.093 -0.543,-0.14 -0.864,-0.14 -1.058,0 -1.808,0.703 -1.808,1.711 0,0.543 0.144,0.851 0.75,1.492 0.097,0.094 0.226,0.238 0.402,0.43 0.192,0.191 0.336,0.351 0.399,0.433 0.48,0.496 0.613,0.77 0.613,1.2 0,0.769 -0.563,1.363 -1.317,1.363 -0.847,0 -1.488,-0.723 -1.488,-1.699 0,-0.079 0.016,-0.161 0.016,-0.223 L 0.609,18.598 0.254,20.887 h 0.18 c 0.078,-0.239 0.191,-0.336 0.398,-0.336 0.113,0 0.258,0.031 0.531,0.129 0.465,0.175 0.735,0.222 1.055,0.222 1.172,0 2.066,-0.879 2.066,-2.035 0,-0.672 -0.238,-1.055 -1.152,-2 -0.93,-0.929 -1.008,-1.074 -1.008,-1.57 0,-0.641 0.43,-1.043 1.121,-1.043 0.383,0 0.688,0.129 0.91,0.387 0.223,0.254 0.305,0.593 0.321,1.281 z"
                           style="fill:#000000;fill-opacity:1;fill-rule:nonzero;stroke:none"
                           id="path2087" /><path
                           d="M 8.676,18.477 7.395,21.074 7.367,19.918 C 7.332,18.75 7.156,18.383 6.645,18.383 c -0.227,0 -0.45,0.094 -0.61,0.273 -0.191,0.239 -0.273,0.434 -0.383,1.055 l -0.019,0.113 h 0.16 c 0.051,-0.207 0.082,-0.32 0.129,-0.433 0.129,-0.239 0.336,-0.383 0.562,-0.383 0.192,0 0.321,0.129 0.414,0.43 0.114,0.386 0.196,1.074 0.176,1.636 l -0.015,0.641 c -0.032,0.062 -0.161,0.305 -0.368,0.719 -0.222,0.418 -0.304,0.64 -0.351,0.898 -0.047,0.352 0.066,0.574 0.305,0.574 0.304,0 0.574,-0.383 0.687,-0.972 0.035,-0.243 0.047,-0.614 0.063,-1.172 l 2.082,-3.285 z"
                           style="fill:#000000;fill-opacity:1;fill-rule:nonzero;stroke:none"
                           id="path2089" /><path
                           d="m 18.715,17.379 c 0.16,0 0.351,0 0.351,-0.191 0,-0.211 -0.191,-0.211 -0.336,-0.211 h -6.117 c -0.144,0 -0.336,0 -0.336,0.211 0,0.191 0.192,0.191 0.336,0.191 z m 0.015,1.988 c 0.145,0 0.336,0 0.336,-0.211 0,-0.191 -0.191,-0.191 -0.351,-0.191 h -6.102 c -0.144,0 -0.336,0 -0.336,0.191 0,0.211 0.192,0.211 0.336,0.211 z"
                           style="fill:#000000;fill-opacity:1;fill-rule:nonzero;stroke:none"
                           id="path2091" /><path
                           d="m 24.883,13.82 -1.84,0.934 v 0.141 c 0.113,-0.047 0.223,-0.094 0.273,-0.11 0.188,-0.082 0.348,-0.113 0.461,-0.113 0.207,0 0.305,0.144 0.305,0.48 v 4.629 c 0,0.336 -0.078,0.563 -0.238,0.657 -0.16,0.097 -0.305,0.128 -0.739,0.128 v 0.161 h 2.821 v -0.161 c -0.801,0 -0.961,-0.113 -0.961,-0.593 V 13.84 Z"
                           style="fill:#000000;fill-opacity:1;fill-rule:nonzero;stroke:none"
                           id="path2093" /><path
                           d="m 27.859,22.168 c 0.688,-0.336 1.137,-0.961 1.137,-1.57 0,-0.512 -0.351,-0.91 -0.816,-0.91 -0.352,0 -0.594,0.238 -0.594,0.574 0,0.336 0.226,0.527 0.594,0.527 0.066,0 0.144,-0.016 0.191,-0.016 0.082,-0.031 0.082,-0.031 0.098,-0.031 0.078,0 0.144,0.067 0.144,0.145 0,0.336 -0.289,0.703 -0.847,1.09 z"
                           style="fill:#000000;fill-opacity:1;fill-rule:nonzero;stroke:none"
                           id="path2095" /><path
                           d="m 33.605,14.223 c 0.594,0.066 0.723,0.16 0.723,0.418 0,0.144 -0.031,0.367 -0.16,0.816 l -1.219,4.355 c -0.176,0.61 -0.254,0.676 -0.832,0.754 v 0.161 h 2.5 v -0.161 c -0.64,-0.097 -0.691,-0.128 -0.691,-0.48 0,-0.113 0.019,-0.223 0.129,-0.594 l 0.531,-1.969 c 0.254,0.063 0.527,0.082 0.941,0.082 0.836,0 1.524,-0.16 1.973,-0.48 0.496,-0.387 0.801,-0.949 0.801,-1.555 0,-0.976 -0.77,-1.523 -2.164,-1.523 h -2.532 z m 1.797,0.418 c 0.063,-0.207 0.192,-0.274 0.481,-0.274 0.398,0 0.785,0.098 0.992,0.242 0.254,0.176 0.367,0.481 0.367,0.961 0,0.672 -0.222,1.137 -0.672,1.407 -0.32,0.179 -0.722,0.257 -1.363,0.257 -0.176,0 -0.254,-0.015 -0.527,-0.046 z"
                           style="fill:#000000;fill-opacity:1;fill-rule:nonzero;stroke:none"
                           id="path2097" /><path
                           d="m 40.574,18.477 -1.281,2.597 -0.035,-1.156 c -0.031,-1.168 -0.207,-1.535 -0.719,-1.535 -0.227,0 -0.449,0.094 -0.609,0.273 -0.192,0.239 -0.274,0.434 -0.383,1.055 l -0.016,0.113 h 0.16 c 0.047,-0.207 0.079,-0.32 0.125,-0.433 0.129,-0.239 0.336,-0.383 0.563,-0.383 0.191,0 0.32,0.129 0.414,0.43 0.113,0.386 0.195,1.074 0.18,1.636 l -0.02,0.641 c -0.027,0.062 -0.16,0.305 -0.367,0.719 -0.223,0.418 -0.301,0.64 -0.352,0.898 -0.046,0.352 0.063,0.574 0.305,0.574 0.305,0 0.574,-0.383 0.688,-0.972 0.031,-0.243 0.046,-0.614 0.066,-1.172 l 2.082,-3.285 z"
                           style="fill:#000000;fill-opacity:1;fill-rule:nonzero;stroke:none"
                           id="path2099" /><path
                           d="m 42.172,22.168 c 0.691,-0.336 1.14,-0.961 1.14,-1.57 0,-0.512 -0.355,-0.91 -0.82,-0.91 -0.351,0 -0.59,0.238 -0.59,0.574 0,0.336 0.223,0.527 0.59,0.527 0.067,0 0.145,-0.016 0.196,-0.016 0.078,-0.031 0.078,-0.031 0.097,-0.031 0.078,0 0.141,0.067 0.141,0.145 0,0.336 -0.289,0.703 -0.848,1.09 z"
                           style="fill:#000000;fill-opacity:1;fill-rule:nonzero;stroke:none"
                           id="path2101" /><path
                           d="m 46.352,20.727 h 2.5 v -0.161 c -0.594,-0.078 -0.707,-0.144 -0.707,-0.418 0,-0.191 0.015,-0.32 0.113,-0.656 l 1.265,-4.515 c 0.176,-0.594 0.254,-0.657 0.832,-0.754 v -0.176 h -2.531 v 0.176 c 0.594,0.066 0.723,0.144 0.723,0.433 0,0.145 -0.035,0.387 -0.113,0.641 l -1.25,4.515 c -0.192,0.594 -0.254,0.641 -0.832,0.754 z"
                           style="fill:#000000;fill-opacity:1;fill-rule:nonzero;stroke:none"
                           id="path2103" /><path
                           d="m 53.066,18.477 -1.281,2.597 -0.031,-1.156 c -0.031,-1.168 -0.207,-1.535 -0.719,-1.535 -0.226,0 -0.449,0.094 -0.609,0.273 -0.192,0.239 -0.274,0.434 -0.387,1.055 l -0.016,0.113 h 0.161 c 0.05,-0.207 0.082,-0.32 0.128,-0.433 0.129,-0.239 0.336,-0.383 0.563,-0.383 0.191,0 0.32,0.129 0.414,0.43 0.113,0.386 0.195,1.074 0.176,1.636 l -0.016,0.641 c -0.031,0.062 -0.16,0.305 -0.367,0.719 -0.227,0.418 -0.305,0.64 -0.352,0.898 -0.046,0.352 0.063,0.574 0.305,0.574 0.301,0 0.574,-0.383 0.688,-0.972 0.031,-0.243 0.047,-0.614 0.062,-1.172 l 2.082,-3.285 z"
                           style="fill:#000000;fill-opacity:1;fill-rule:nonzero;stroke:none"
                           id="path2105" /><path
                           d="M 5.078,88.844 5.48,86.812 H 5.238 c -0.144,0.223 -0.226,0.27 -0.449,0.27 -0.129,0 -0.242,-0.031 -0.48,-0.109 -0.223,-0.098 -0.543,-0.145 -0.864,-0.145 -1.058,0 -1.812,0.703 -1.812,1.715 0,0.543 0.144,0.848 0.754,1.488 0.097,0.094 0.222,0.242 0.398,0.434 0.192,0.191 0.34,0.351 0.403,0.43 0.48,0.5 0.609,0.769 0.609,1.203 0,0.769 -0.563,1.359 -1.313,1.359 -0.851,0 -1.492,-0.719 -1.492,-1.695 0,-0.082 0.016,-0.16 0.016,-0.227 L 0.816,91.504 0.465,93.797 h 0.176 c 0.082,-0.242 0.191,-0.34 0.402,-0.34 0.109,0 0.254,0.035 0.527,0.133 0.465,0.172 0.735,0.222 1.055,0.222 1.172,0 2.066,-0.882 2.066,-2.035 0,-0.672 -0.238,-1.058 -1.152,-2.004 -0.93,-0.929 -1.008,-1.07 -1.008,-1.57 0,-0.641 0.434,-1.039 1.121,-1.039 0.383,0 0.688,0.129 0.914,0.383 0.223,0.258 0.301,0.594 0.321,1.285 z"
                           style="fill:#000000;fill-opacity:1;fill-rule:nonzero;stroke:none"
                           id="path2107" /><path
                           d="m 6.375,92.105 h 0.211 c 0.098,-0.046 0.289,0.098 0.289,0.211 0,0.063 -0.273,1.137 -0.531,2.145 -0.207,0.754 -0.383,1.473 -0.449,1.684 -0.079,0.351 -0.172,0.445 -0.493,0.445 v 0.133 h 1.536 v -0.114 c -0.352,0 -0.481,-0.082 -0.481,-0.226 0,-0.113 0.129,-0.703 0.289,-1.262 0.176,0.094 0.32,0.125 0.496,0.125 1.106,0 2.258,-1.266 2.258,-2.465 0,-0.593 -0.32,-0.945 -0.863,-0.945 -0.5,0 -0.852,0.242 -1.301,0.848 L 7.562,91.93 7.578,91.867 V 91.836 H 7.562 C 7.562,91.82 7.547,91.82 7.547,91.82 l -0.016,0.016 -1.168,0.16 z m 1.988,0.051 c 0.321,0.016 0.465,0.207 0.465,0.656 0,0.497 -0.223,1.137 -0.543,1.618 -0.32,0.449 -0.691,0.672 -1.074,0.672 -0.207,0 -0.367,-0.114 -0.367,-0.274 0,-0.254 0.269,-1.246 0.492,-1.808 0.211,-0.512 0.641,-0.879 1.027,-0.864 z"
                           style="fill:#000000;fill-opacity:1;fill-rule:nonzero;stroke:none"
                           id="path2109" /><path
                           d="m 19.535,90.285 c 0.16,0 0.356,0 0.356,-0.191 0,-0.207 -0.196,-0.207 -0.34,-0.207 h -6.117 c -0.145,0 -0.336,0 -0.336,0.207 0,0.191 0.191,0.191 0.336,0.191 z m 0.016,1.988 c 0.144,0 0.34,0 0.34,-0.207 0,-0.191 -0.196,-0.191 -0.356,-0.191 h -6.101 c -0.145,0 -0.336,0 -0.336,0.191 0,0.207 0.191,0.207 0.336,0.207 z"
                           style="fill:#000000;fill-opacity:1;fill-rule:nonzero;stroke:none"
                           id="path2111" /><path
                           d="m 25.703,86.73 -1.844,0.93 v 0.145 c 0.114,-0.047 0.227,-0.098 0.274,-0.114 0.195,-0.078 0.355,-0.109 0.465,-0.109 0.211,0 0.304,0.141 0.304,0.48 v 4.629 c 0,0.336 -0.082,0.559 -0.242,0.657 -0.16,0.093 -0.301,0.129 -0.734,0.129 v 0.16 h 2.816 v -0.16 c -0.801,0 -0.961,-0.114 -0.961,-0.594 v -6.137 z"
                           style="fill:#000000;fill-opacity:1;fill-rule:nonzero;stroke:none"
                           id="path2113" /><path
                           d="m 32.316,86.363 c 0.047,-0.144 0.047,-0.175 0.047,-0.191 0,-0.113 -0.078,-0.211 -0.191,-0.211 -0.078,0 -0.145,0.035 -0.176,0.098 l -3.555,9.738 c -0.046,0.144 -0.046,0.176 -0.046,0.195 0,0.11 0.093,0.207 0.207,0.207 0.125,0 0.16,-0.082 0.222,-0.258 z"
                           style="fill:#000000;fill-opacity:1;fill-rule:nonzero;stroke:none"
                           id="path2115" /><path
                           d="m 37.789,92.242 -0.125,-0.066 c -0.387,0.594 -0.516,0.691 -0.98,0.691 H 34.25 l 1.715,-1.812 c 0.914,-0.942 1.312,-1.731 1.312,-2.512 0,-1.027 -0.832,-1.813 -1.902,-1.813 -0.563,0 -1.094,0.227 -1.461,0.625 -0.336,0.352 -0.48,0.676 -0.656,1.411 l 0.207,0.046 c 0.418,-1.007 0.785,-1.328 1.492,-1.328 0.848,0 1.441,0.578 1.441,1.442 0,0.801 -0.48,1.746 -1.332,2.66 l -1.824,1.922 v 0.129 h 3.988 z"
                           style="fill:#000000;fill-opacity:1;fill-rule:nonzero;stroke:none"
                           id="path2117" /><path
                           d="m 38.891,95.078 c 0.691,-0.34 1.14,-0.961 1.14,-1.57 0,-0.512 -0.351,-0.914 -0.82,-0.914 -0.348,0 -0.59,0.242 -0.59,0.578 0,0.336 0.223,0.527 0.59,0.527 0.066,0 0.148,-0.015 0.195,-0.015 0.078,-0.032 0.078,-0.032 0.098,-0.032 0.078,0 0.141,0.063 0.141,0.145 0,0.336 -0.286,0.703 -0.848,1.086 z"
                           style="fill:#000000;fill-opacity:1;fill-rule:nonzero;stroke:none"
                           id="path2119" /><path
                           d="m 44.641,87.133 c 0.593,0.062 0.722,0.16 0.722,0.414 0,0.144 -0.035,0.371 -0.16,0.816 l -1.223,4.36 c -0.171,0.609 -0.253,0.672 -0.828,0.754 v 0.16 h 2.496 v -0.16 c -0.64,-0.098 -0.687,-0.129 -0.687,-0.481 0,-0.113 0.016,-0.226 0.129,-0.594 l 0.527,-1.968 c 0.258,0.062 0.528,0.078 0.945,0.078 0.833,0 1.524,-0.16 1.969,-0.481 0.496,-0.386 0.801,-0.945 0.801,-1.554 0,-0.977 -0.766,-1.52 -2.16,-1.52 h -2.531 z m 1.793,0.414 c 0.062,-0.207 0.191,-0.27 0.48,-0.27 0.402,0 0.785,0.094 0.992,0.239 0.258,0.175 0.371,0.48 0.371,0.961 0,0.675 -0.226,1.136 -0.672,1.41 -0.32,0.175 -0.722,0.258 -1.363,0.258 -0.18,0 -0.258,-0.02 -0.527,-0.051 z"
                           style="fill:#000000;fill-opacity:1;fill-rule:nonzero;stroke:none"
                           id="path2121" /><path
                           d="m 49.094,92.105 h 0.211 c 0.093,-0.046 0.289,0.098 0.289,0.211 0,0.063 -0.274,1.137 -0.528,2.145 -0.211,0.754 -0.386,1.473 -0.453,1.684 -0.078,0.351 -0.175,0.445 -0.496,0.445 v 0.133 h 1.539 v -0.114 c -0.351,0 -0.48,-0.082 -0.48,-0.226 0,-0.113 0.129,-0.703 0.289,-1.262 0.176,0.094 0.32,0.125 0.496,0.125 1.105,0 2.258,-1.266 2.258,-2.465 0,-0.593 -0.321,-0.945 -0.864,-0.945 -0.5,0 -0.847,0.242 -1.3,0.848 l 0.226,-0.754 0.016,-0.063 v -0.031 h -0.016 c 0,-0.016 -0.015,-0.016 -0.015,-0.016 l -0.016,0.016 -1.172,0.16 z m 1.988,0.051 c 0.32,0.016 0.465,0.207 0.465,0.656 0,0.497 -0.223,1.137 -0.543,1.618 -0.32,0.449 -0.692,0.672 -1.074,0.672 -0.211,0 -0.371,-0.114 -0.371,-0.274 0,-0.254 0.273,-1.246 0.496,-1.808 0.211,-0.512 0.64,-0.879 1.027,-0.864 z"
                           style="fill:#000000;fill-opacity:1;fill-rule:nonzero;stroke:none"
                           id="path2123" /><path
                           d="m 62.254,90.285 c 0.16,0 0.355,0 0.355,-0.191 0,-0.207 -0.195,-0.207 -0.339,-0.207 h -6.118 c -0.144,0 -0.336,0 -0.336,0.207 0,0.191 0.192,0.191 0.336,0.191 z m 0.016,1.988 c 0.144,0 0.339,0 0.339,-0.207 0,-0.191 -0.195,-0.191 -0.355,-0.191 h -6.102 c -0.144,0 -0.336,0 -0.336,0.191 0,0.207 0.192,0.207 0.336,0.207 z"
                           style="fill:#000000;fill-opacity:1;fill-rule:nonzero;stroke:none"
                           id="path2125" /><path
                           d="m 69.621,91.281 h 2.848 c 0.148,0 0.336,0 0.336,-0.207 0,-0.195 -0.188,-0.195 -0.336,-0.195 h -2.848 v -2.867 c 0,-0.145 0,-0.336 -0.207,-0.336 -0.211,0 -0.211,0.191 -0.211,0.336 v 2.867 h -2.851 c -0.145,0 -0.336,0 -0.336,0.195 0,0.207 0.191,0.207 0.336,0.207 h 2.851 v 2.867 c 0,0.145 0,0.336 0.211,0.336 0.207,0 0.207,-0.191 0.207,-0.336 z"
                           style="fill:#000000;fill-opacity:1;fill-rule:nonzero;stroke:none"
                           id="path2127" /><path
                           d="m 76.355,86.73 -1.839,0.93 v 0.145 c 0.113,-0.047 0.222,-0.098 0.273,-0.114 0.191,-0.078 0.352,-0.109 0.465,-0.109 0.207,0 0.301,0.141 0.301,0.48 v 4.629 c 0,0.336 -0.078,0.559 -0.239,0.657 -0.16,0.093 -0.304,0.129 -0.738,0.129 v 0.16 h 2.82 v -0.16 c -0.8,0 -0.96,-0.114 -0.96,-0.594 v -6.137 z"
                           style="fill:#000000;fill-opacity:1;fill-rule:nonzero;stroke:none"
                           id="path2129" /><path
                           d="m 79.332,95.078 c 0.691,-0.34 1.141,-0.961 1.141,-1.57 0,-0.512 -0.356,-0.914 -0.821,-0.914 -0.351,0 -0.59,0.242 -0.59,0.578 0,0.336 0.223,0.527 0.59,0.527 0.067,0 0.145,-0.015 0.196,-0.015 0.078,-0.032 0.078,-0.032 0.093,-0.032 0.082,0 0.145,0.063 0.145,0.145 0,0.336 -0.289,0.703 -0.848,1.086 z"
                           style="fill:#000000;fill-opacity:1;fill-rule:nonzero;stroke:none"
                           id="path2131" /><path
                           d="m 0.207,105.891 h 2.5 v -0.161 c -0.594,-0.078 -0.703,-0.144 -0.703,-0.418 0,-0.191 0.012,-0.32 0.109,-0.656 l 1.266,-4.515 C 3.555,99.547 3.637,99.484 4.211,99.387 V 99.211 H 1.684 v 0.176 c 0.589,0.066 0.718,0.144 0.718,0.433 0,0.145 -0.031,0.383 -0.113,0.641 l -1.246,4.516 c -0.195,0.593 -0.258,0.64 -0.836,0.753 z"
                           style="fill:#000000;fill-opacity:1;fill-rule:nonzero;stroke:none"
                           id="path2133" /><path
                           d="m 4.418,104.363 h 0.207 c 0.094,-0.051 0.289,0.094 0.289,0.207 0,0.063 -0.273,1.137 -0.527,2.149 -0.211,0.75 -0.387,1.472 -0.449,1.679 -0.083,0.352 -0.18,0.45 -0.5,0.45 v 0.129 h 1.539 v -0.114 c -0.352,0 -0.481,-0.082 -0.481,-0.222 0,-0.114 0.129,-0.707 0.289,-1.27 0.176,0.098 0.32,0.129 0.496,0.129 1.106,0 2.258,-1.262 2.258,-2.465 0,-0.594 -0.32,-0.945 -0.863,-0.945 -0.496,0 -0.848,0.238 -1.297,0.848 l 0.223,-0.75 0.015,-0.067 V 104.09 H 5.602 c 0,-0.016 -0.016,-0.016 -0.016,-0.016 l -0.02,0.016 -1.168,0.16 z m 1.984,0.047 c 0.321,0.016 0.465,0.207 0.465,0.656 0,0.496 -0.226,1.137 -0.547,1.618 -0.32,0.449 -0.687,0.675 -1.074,0.675 -0.207,0 -0.367,-0.113 -0.367,-0.273 0,-0.258 0.273,-1.25 0.5,-1.813 0.207,-0.511 0.641,-0.878 1.023,-0.863 z"
                           style="fill:#000000;fill-opacity:1;fill-rule:nonzero;stroke:none"
                           id="path2135" /><path
                           d="m 17.574,102.543 c 0.16,0 0.352,0 0.352,-0.191 0,-0.211 -0.192,-0.211 -0.336,-0.211 h -6.117 c -0.145,0 -0.336,0 -0.336,0.211 0,0.191 0.191,0.191 0.336,0.191 z m 0.016,1.988 c 0.144,0 0.336,0 0.336,-0.211 0,-0.191 -0.192,-0.191 -0.352,-0.191 h -6.101 c -0.145,0 -0.336,0 -0.336,0.191 0,0.211 0.191,0.211 0.336,0.211 z"
                           style="fill:#000000;fill-opacity:1;fill-rule:nonzero;stroke:none"
                           id="path2137" /><path
                           d="m 23.742,98.988 -1.84,0.926 v 0.145 c 0.11,-0.047 0.223,-0.094 0.27,-0.11 0.191,-0.082 0.351,-0.113 0.465,-0.113 0.207,0 0.304,0.144 0.304,0.48 v 4.629 c 0,0.336 -0.078,0.563 -0.238,0.657 -0.16,0.097 -0.305,0.128 -0.738,0.128 v 0.161 h 2.82 v -0.161 c -0.801,0 -0.961,-0.113 -0.961,-0.593 v -6.133 z"
                           style="fill:#000000;fill-opacity:1;fill-rule:nonzero;stroke:none"
                           id="path2139" /><path
                           d="m 30.355,98.617 c 0.047,-0.144 0.047,-0.176 0.047,-0.191 0,-0.114 -0.078,-0.207 -0.191,-0.207 -0.082,0 -0.145,0.031 -0.176,0.093 l -3.558,9.743 c -0.047,0.14 -0.047,0.175 -0.047,0.187 0,0.113 0.097,0.211 0.207,0.211 0.129,0 0.16,-0.078 0.226,-0.258 z"
                           style="fill:#000000;fill-opacity:1;fill-rule:nonzero;stroke:none"
                           id="path2141" /><path
                           d="m 35.828,104.496 -0.129,-0.062 c -0.383,0.593 -0.511,0.687 -0.972,0.687 h -2.438 l 1.715,-1.809 c 0.914,-0.945 1.312,-1.73 1.312,-2.515 0,-1.024 -0.832,-1.809 -1.906,-1.809 -0.558,0 -1.09,0.223 -1.457,0.625 -0.336,0.352 -0.48,0.672 -0.656,1.407 l 0.207,0.05 c 0.418,-1.011 0.785,-1.332 1.492,-1.332 0.848,0 1.442,0.578 1.442,1.442 0,0.8 -0.481,1.75 -1.333,2.66 l -1.824,1.922 v 0.129 h 3.989 z"
                           style="fill:#000000;fill-opacity:1;fill-rule:nonzero;stroke:none"
                           id="path2143" /><path
                           d="m 374.512,88.207 0.402,-2.035 h -0.242 c -0.141,0.223 -0.223,0.273 -0.445,0.273 -0.129,0 -0.243,-0.031 -0.481,-0.113 -0.226,-0.098 -0.547,-0.144 -0.867,-0.144 -1.059,0 -1.809,0.707 -1.809,1.714 0,0.547 0.145,0.848 0.75,1.489 0.098,0.097 0.227,0.242 0.403,0.433 0.191,0.192 0.336,0.352 0.402,0.434 0.48,0.496 0.605,0.765 0.605,1.199 0,0.77 -0.558,1.363 -1.312,1.363 -0.848,0 -1.488,-0.722 -1.488,-1.699 0,-0.082 0.015,-0.16 0.015,-0.223 l -0.191,-0.035 -0.356,2.293 h 0.176 c 0.082,-0.242 0.196,-0.336 0.403,-0.336 0.113,0 0.257,0.032 0.531,0.125 0.461,0.176 0.734,0.227 1.054,0.227 1.168,0 2.067,-0.879 2.067,-2.035 0,-0.672 -0.238,-1.059 -1.152,-2 -0.93,-0.93 -1.008,-1.075 -1.008,-1.571 0,-0.64 0.429,-1.039 1.121,-1.039 0.383,0 0.687,0.125 0.91,0.379 0.227,0.262 0.305,0.594 0.32,1.285 z"
                           style="fill:#000000;fill-opacity:1;fill-rule:nonzero;stroke:none"
                           id="path2145" /><path
                           d="m 375.812,91.469 h 0.208 c 0.097,-0.051 0.289,0.093 0.289,0.207 0,0.062 -0.274,1.136 -0.528,2.144 -0.207,0.754 -0.386,1.473 -0.449,1.684 -0.078,0.351 -0.176,0.449 -0.496,0.449 v 0.129 h 1.539 v -0.113 c -0.355,0 -0.48,-0.082 -0.48,-0.227 0,-0.109 0.125,-0.703 0.285,-1.262 0.175,0.094 0.32,0.125 0.496,0.125 1.105,0 2.262,-1.265 2.262,-2.464 0,-0.594 -0.321,-0.946 -0.868,-0.946 -0.496,0 -0.847,0.243 -1.297,0.848 l 0.223,-0.754 0.02,-0.062 v -0.032 h -0.02 c 0,-0.015 -0.016,-0.015 -0.016,-0.015 l -0.011,0.015 -1.172,0.16 z m 1.985,0.047 c 0.32,0.015 0.469,0.207 0.469,0.656 0,0.496 -0.227,1.137 -0.547,1.617 -0.321,0.449 -0.688,0.672 -1.071,0.672 -0.21,0 -0.371,-0.109 -0.371,-0.27 0,-0.257 0.274,-1.25 0.496,-1.812 0.207,-0.512 0.641,-0.879 1.024,-0.863 z"
                           style="fill:#000000;fill-opacity:1;fill-rule:nonzero;stroke:none"
                           id="path2147" /><path
                           d="m 388.973,89.648 c 0.16,0 0.351,0 0.351,-0.191 0,-0.207 -0.191,-0.207 -0.336,-0.207 h -6.121 c -0.14,0 -0.332,0 -0.332,0.207 0,0.191 0.192,0.191 0.332,0.191 z m 0.015,1.985 c 0.145,0 0.336,0 0.336,-0.207 0,-0.192 -0.191,-0.192 -0.351,-0.192 h -6.106 c -0.14,0 -0.332,0 -0.332,0.192 0,0.207 0.192,0.207 0.332,0.207 z"
                           style="fill:#000000;fill-opacity:1;fill-rule:nonzero;stroke:none"
                           id="path2149" /><path
                           d="m 395.141,86.094 -1.844,0.926 v 0.148 c 0.113,-0.051 0.226,-0.102 0.273,-0.113 0.192,-0.082 0.352,-0.114 0.465,-0.114 0.207,0 0.305,0.145 0.305,0.481 v 4.629 c 0,0.336 -0.082,0.562 -0.242,0.656 -0.16,0.094 -0.305,0.129 -0.735,0.129 v 0.16 h 2.817 v -0.16 c -0.801,0 -0.961,-0.113 -0.961,-0.594 v -6.137 z"
                           style="fill:#000000;fill-opacity:1;fill-rule:nonzero;stroke:none"
                           id="path2151" /><path
                           d="m 401.75,85.727 c 0.051,-0.149 0.051,-0.18 0.051,-0.196 0,-0.113 -0.082,-0.207 -0.192,-0.207 -0.082,0 -0.144,0.031 -0.179,0.094 l -3.555,9.738 c -0.047,0.145 -0.047,0.18 -0.047,0.196 0,0.109 0.098,0.207 0.207,0.207 0.129,0 0.16,-0.082 0.227,-0.258 z"
                           style="fill:#000000;fill-opacity:1;fill-rule:nonzero;stroke:none"
                           id="path2153" /><path
                           d="m 407.227,91.602 -0.129,-0.063 c -0.383,0.594 -0.512,0.688 -0.977,0.688 h -2.433 l 1.714,-1.809 c 0.91,-0.945 1.313,-1.73 1.313,-2.516 0,-1.027 -0.832,-1.808 -1.906,-1.808 -0.563,0 -1.09,0.222 -1.457,0.621 -0.34,0.351 -0.481,0.672 -0.661,1.414 l 0.211,0.047 c 0.418,-1.008 0.786,-1.328 1.489,-1.328 0.851,0 1.441,0.574 1.441,1.441 0,0.801 -0.48,1.742 -1.328,2.656 l -1.824,1.922 v 0.129 h 3.988 z"
                           style="fill:#000000;fill-opacity:1;fill-rule:nonzero;stroke:none"
                           id="path2155" /><path
                           d="m 408.328,94.438 c 0.688,-0.336 1.137,-0.961 1.137,-1.571 0,-0.512 -0.352,-0.914 -0.817,-0.914 -0.351,0 -0.593,0.242 -0.593,0.578 0,0.336 0.226,0.528 0.593,0.528 0.067,0 0.145,-0.016 0.196,-0.016 0.078,-0.031 0.078,-0.031 0.094,-0.031 0.078,0 0.144,0.062 0.144,0.144 0,0.336 -0.289,0.703 -0.848,1.086 z"
                           style="fill:#000000;fill-opacity:1;fill-rule:nonzero;stroke:none"
                           id="path2157" /><path
                           d="m 414.074,86.492 c 0.594,0.063 0.723,0.16 0.723,0.414 0,0.149 -0.031,0.371 -0.16,0.821 l -1.219,4.355 c -0.176,0.609 -0.254,0.672 -0.832,0.754 v 0.16 h 2.5 v -0.16 c -0.641,-0.098 -0.691,-0.129 -0.691,-0.481 0,-0.113 0.019,-0.222 0.132,-0.593 l 0.528,-1.969 c 0.254,0.062 0.527,0.078 0.941,0.078 0.836,0 1.524,-0.16 1.973,-0.48 0.496,-0.383 0.801,-0.942 0.801,-1.555 0,-0.977 -0.77,-1.52 -2.161,-1.52 h -2.535 z m 1.797,0.414 c 0.063,-0.207 0.191,-0.269 0.481,-0.269 0.398,0 0.785,0.097 0.992,0.238 0.254,0.18 0.367,0.48 0.367,0.961 0,0.676 -0.223,1.141 -0.672,1.414 -0.32,0.172 -0.723,0.254 -1.363,0.254 -0.176,0 -0.254,-0.016 -0.528,-0.047 z"
                           style="fill:#000000;fill-opacity:1;fill-rule:nonzero;stroke:none"
                           id="path2159" /><path
                           d="m 418.531,91.469 h 0.207 c 0.098,-0.051 0.289,0.093 0.289,0.207 0,0.062 -0.269,1.136 -0.527,2.144 -0.207,0.754 -0.383,1.473 -0.449,1.684 -0.078,0.351 -0.176,0.449 -0.496,0.449 v 0.129 h 1.539 v -0.113 c -0.356,0 -0.481,-0.082 -0.481,-0.227 0,-0.109 0.125,-0.703 0.285,-1.262 0.18,0.094 0.321,0.125 0.5,0.125 1.102,0 2.258,-1.265 2.258,-2.464 0,-0.594 -0.32,-0.946 -0.867,-0.946 -0.496,0 -0.848,0.243 -1.297,0.848 l 0.227,-0.754 0.015,-0.062 v -0.032 h -0.015 c 0,-0.015 -0.02,-0.015 -0.02,-0.015 l -0.011,0.015 -1.172,0.16 z m 1.989,0.047 c 0.32,0.015 0.46,0.207 0.46,0.656 0,0.496 -0.222,1.137 -0.542,1.617 -0.321,0.449 -0.688,0.672 -1.071,0.672 -0.211,0 -0.371,-0.109 -0.371,-0.27 0,-0.257 0.274,-1.25 0.496,-1.812 0.207,-0.512 0.641,-0.879 1.028,-0.863 z"
                           style="fill:#000000;fill-opacity:1;fill-rule:nonzero;stroke:none"
                           id="path2161" /><path
                           d="m 431.688,89.648 c 0.16,0 0.355,0 0.355,-0.191 0,-0.207 -0.195,-0.207 -0.336,-0.207 h -6.121 c -0.145,0 -0.336,0 -0.336,0.207 0,0.191 0.191,0.191 0.336,0.191 z m 0.019,1.985 c 0.141,0 0.336,0 0.336,-0.207 0,-0.192 -0.195,-0.192 -0.355,-0.192 h -6.102 c -0.145,0 -0.336,0 -0.336,0.192 0,0.207 0.191,0.207 0.336,0.207 z"
                           style="fill:#000000;fill-opacity:1;fill-rule:nonzero;stroke:none"
                           id="path2163" /><path
                           d="m 439.055,90.641 h 2.851 c 0.145,0 0.336,0 0.336,-0.207 0,-0.196 -0.191,-0.196 -0.336,-0.196 h -2.851 v -2.863 c 0,-0.148 0,-0.34 -0.207,-0.34 -0.207,0 -0.207,0.192 -0.207,0.34 v 2.863 h -2.852 c -0.144,0 -0.34,0 -0.34,0.196 0,0.207 0.196,0.207 0.34,0.207 h 2.852 v 2.867 c 0,0.144 0,0.336 0.207,0.336 0.207,0 0.207,-0.192 0.207,-0.336 z"
                           style="fill:#000000;fill-opacity:1;fill-rule:nonzero;stroke:none"
                           id="path2165" /><path
                           d="m 445.793,86.094 -1.84,0.926 v 0.148 c 0.109,-0.051 0.223,-0.102 0.27,-0.113 0.195,-0.082 0.355,-0.114 0.465,-0.114 0.21,0 0.304,0.145 0.304,0.481 v 4.629 c 0,0.336 -0.078,0.562 -0.238,0.656 -0.16,0.094 -0.305,0.129 -0.738,0.129 v 0.16 h 2.82 v -0.16 c -0.801,0 -0.961,-0.113 -0.961,-0.594 v -6.137 z"
                           style="fill:#000000;fill-opacity:1;fill-rule:nonzero;stroke:none"
                           id="path2167" /><path
                           d="m 448.77,94.438 c 0.687,-0.336 1.14,-0.961 1.14,-1.571 0,-0.512 -0.355,-0.914 -0.82,-0.914 -0.352,0 -0.594,0.242 -0.594,0.578 0,0.336 0.227,0.528 0.594,0.528 0.066,0 0.144,-0.016 0.191,-0.016 0.082,-0.031 0.082,-0.031 0.098,-0.031 0.078,0 0.144,0.062 0.144,0.144 0,0.336 -0.289,0.703 -0.847,1.086 z"
                           style="fill:#000000;fill-opacity:1;fill-rule:nonzero;stroke:none"
                           id="path2169" /><path
                           d="m 369.645,105.25 h 2.496 v -0.16 c -0.59,-0.078 -0.703,-0.145 -0.703,-0.418 0,-0.192 0.015,-0.32 0.113,-0.656 l 1.265,-4.516 c 0.176,-0.594 0.254,-0.656 0.832,-0.754 V 98.57 h -2.531 v 0.176 c 0.594,0.066 0.719,0.145 0.719,0.434 0,0.144 -0.027,0.382 -0.109,0.64 l -1.25,4.516 c -0.192,0.594 -0.258,0.641 -0.832,0.754 z"
                           style="fill:#000000;fill-opacity:1;fill-rule:nonzero;stroke:none"
                           id="path2171" /><path
                           d="m 373.852,103.723 h 0.207 c 0.097,-0.051 0.293,0.097 0.293,0.211 0,0.058 -0.274,1.132 -0.532,2.144 -0.207,0.75 -0.382,1.473 -0.449,1.68 -0.078,0.351 -0.176,0.449 -0.496,0.449 v 0.129 h 1.539 v -0.113 c -0.355,0 -0.48,-0.078 -0.48,-0.223 0,-0.113 0.125,-0.703 0.285,-1.266 0.179,0.094 0.32,0.129 0.5,0.129 1.101,0 2.258,-1.269 2.258,-2.468 0,-0.594 -0.321,-0.942 -0.864,-0.942 -0.5,0 -0.851,0.238 -1.301,0.848 l 0.227,-0.754 0.016,-0.067 v -0.027 h -0.016 c 0,-0.019 -0.019,-0.019 -0.019,-0.019 l -0.016,0.019 -1.168,0.16 z m 1.988,0.05 c 0.32,0.012 0.461,0.207 0.461,0.653 0,0.496 -0.223,1.136 -0.543,1.617 -0.32,0.453 -0.688,0.676 -1.074,0.676 -0.207,0 -0.368,-0.114 -0.368,-0.274 0,-0.257 0.274,-1.25 0.496,-1.812 0.208,-0.512 0.641,-0.879 1.028,-0.86 z"
                           style="fill:#000000;fill-opacity:1;fill-rule:nonzero;stroke:none"
                           id="path2173" /><path
                           d="m 387.012,101.902 c 0.16,0 0.351,0 0.351,-0.191 0,-0.211 -0.191,-0.211 -0.336,-0.211 h -6.117 c -0.144,0 -0.34,0 -0.34,0.211 0,0.191 0.196,0.191 0.34,0.191 z m 0.015,1.989 c 0.145,0 0.336,0 0.336,-0.211 0,-0.192 -0.191,-0.192 -0.351,-0.192 h -6.102 c -0.144,0 -0.34,0 -0.34,0.192 0,0.211 0.196,0.211 0.34,0.211 z"
                           style="fill:#000000;fill-opacity:1;fill-rule:nonzero;stroke:none"
                           id="path2175" /><path
                           d="m 393.176,98.344 -1.84,0.933 v 0.141 c 0.113,-0.047 0.226,-0.094 0.273,-0.109 0.192,-0.082 0.352,-0.114 0.465,-0.114 0.207,0 0.301,0.145 0.301,0.481 v 4.629 c 0,0.336 -0.078,0.562 -0.238,0.656 -0.16,0.098 -0.305,0.129 -0.739,0.129 v 0.16 h 2.821 v -0.16 c -0.801,0 -0.961,-0.113 -0.961,-0.594 v -6.133 z"
                           style="fill:#000000;fill-opacity:1;fill-rule:nonzero;stroke:none"
                           id="path2177" /><path
                           d="m 399.793,97.977 c 0.047,-0.141 0.047,-0.176 0.047,-0.192 0,-0.109 -0.082,-0.207 -0.192,-0.207 -0.082,0 -0.148,0.031 -0.175,0.098 l -3.559,9.738 c -0.047,0.141 -0.047,0.176 -0.047,0.191 0,0.11 0.094,0.207 0.207,0.207 0.129,0 0.16,-0.078 0.223,-0.257 z"
                           style="fill:#000000;fill-opacity:1;fill-rule:nonzero;stroke:none"
                           id="path2179" /><path
                           d="m 405.266,103.855 -0.129,-0.062 c -0.383,0.594 -0.512,0.687 -0.977,0.687 h -2.433 l 1.711,-1.808 c 0.914,-0.945 1.316,-1.731 1.316,-2.516 0,-1.023 -0.836,-1.812 -1.906,-1.812 -0.563,0 -1.09,0.226 -1.457,0.629 -0.336,0.351 -0.485,0.672 -0.657,1.406 l 0.207,0.051 c 0.414,-1.012 0.786,-1.332 1.489,-1.332 0.847,0 1.441,0.578 1.441,1.441 0,0.801 -0.48,1.75 -1.328,2.66 l -1.828,1.922 v 0.129 h 3.988 z"
                           style="fill:#000000;fill-opacity:1;fill-rule:nonzero;stroke:none"
                           id="path2181" /><path
                           d="m 354.176,4.074 0.402,-2.031 h -0.242 c -0.145,0.223 -0.227,0.269 -0.449,0.269 -0.129,0 -0.242,-0.031 -0.481,-0.109 -0.222,-0.098 -0.543,-0.144 -0.863,-0.144 -1.059,0 -1.813,0.703 -1.813,1.714 0,0.539 0.145,0.848 0.754,1.489 0.098,0.093 0.223,0.238 0.399,0.433 0.191,0.192 0.34,0.352 0.402,0.43 0.481,0.496 0.61,0.77 0.61,1.203 0,0.77 -0.563,1.363 -1.313,1.363 -0.852,0 -1.492,-0.722 -1.492,-1.703 0,-0.078 0.015,-0.16 0.015,-0.218 l -0.191,-0.036 -0.352,2.289 h 0.176 c 0.082,-0.238 0.192,-0.332 0.403,-0.332 0.109,0 0.254,0.028 0.527,0.125 0.465,0.176 0.734,0.223 1.055,0.223 1.172,0 2.066,-0.879 2.066,-2.031 0,-0.672 -0.238,-1.059 -1.152,-2.004 -0.93,-0.93 -1.008,-1.07 -1.008,-1.57 0,-0.641 0.433,-1.043 1.121,-1.043 0.383,0 0.688,0.132 0.914,0.386 0.223,0.254 0.301,0.594 0.32,1.282 z"
                           style="fill:#000000;fill-opacity:1;fill-rule:nonzero;stroke:none"
                           id="path2183" /><path
                           d="m 361.09,5.465 h -1.266 l -2.531,3.711 -0.414,-3.711 H 355.5 v 0.109 c 0.387,0.031 0.559,0.114 0.559,0.289 0,0.063 -0.028,0.176 -0.079,0.305 0,0.031 -0.031,0.113 -0.062,0.223 0,0.035 -0.02,0.062 -0.02,0.097 l -0.8,2.801 c -0.239,0.785 -0.348,0.945 -0.735,0.981 v 0.125 h 1.489 V 10.27 c -0.383,-0.02 -0.543,-0.114 -0.543,-0.321 0,-0.082 0.031,-0.273 0.082,-0.402 l 0.879,-3.281 0.464,4.129 h 0.125 l 2.856,-4.243 -0.981,3.555 c -0.113,0.402 -0.273,0.512 -0.754,0.563 v 0.125 h 2.055 V 10.27 c -0.515,-0.036 -0.578,-0.082 -0.578,-0.321 0,-0.133 0.016,-0.226 0.078,-0.465 l 0.93,-3.351 c 0.144,-0.445 0.176,-0.481 0.625,-0.559 z"
                           style="fill:#000000;fill-opacity:1;fill-rule:nonzero;stroke:none"
                           id="path2185" /><path
                           d="m 370.883,5.516 c 0.16,0 0.355,0 0.355,-0.192 0,-0.207 -0.195,-0.207 -0.336,-0.207 h -6.121 c -0.144,0 -0.336,0 -0.336,0.207 0,0.192 0.192,0.192 0.336,0.192 z m 0.019,1.988 c 0.141,0 0.336,0 0.336,-0.207 0,-0.195 -0.195,-0.195 -0.355,-0.195 h -6.102 c -0.144,0 -0.336,0 -0.336,0.195 0,0.207 0.192,0.207 0.336,0.207 z"
                           style="fill:#000000;fill-opacity:1;fill-rule:nonzero;stroke:none"
                           id="path2187" /><path
                           d="m 376.668,1.961 c -0.559,0 -0.992,0.176 -1.359,0.531 -0.594,0.574 -0.993,1.742 -0.993,2.946 0,1.105 0.332,2.304 0.813,2.882 0.387,0.45 0.898,0.692 1.508,0.692 0.511,0 0.945,-0.18 1.312,-0.532 0.594,-0.562 0.992,-1.746 0.992,-2.996 0,-2.082 -0.925,-3.523 -2.273,-3.523 z m -0.031,0.258 c 0.863,0 1.312,1.152 1.312,3.297 0,2.132 -0.449,3.222 -1.312,3.222 -0.879,0 -1.328,-1.09 -1.328,-3.222 0,-2.164 0.449,-3.297 1.328,-3.297 z"
                           style="fill:#000000;fill-opacity:1;fill-rule:nonzero;stroke:none"
                           id="path2189" /><path
                           d="m 380.027,10.305 c 0.688,-0.332 1.141,-0.961 1.141,-1.567 0,-0.515 -0.356,-0.914 -0.82,-0.914 -0.352,0 -0.594,0.238 -0.594,0.574 0,0.34 0.226,0.532 0.594,0.532 0.066,0 0.144,-0.02 0.195,-0.02 0.078,-0.031 0.078,-0.031 0.094,-0.031 0.078,0 0.144,0.066 0.144,0.144 0,0.336 -0.289,0.707 -0.847,1.09 z"
                           style="fill:#000000;fill-opacity:1;fill-rule:nonzero;stroke:none"
                           id="path2191" /><path
                           d="m 385.777,2.363 c 0.594,0.063 0.719,0.16 0.719,0.414 0,0.145 -0.031,0.368 -0.16,0.817 l -1.219,4.355 c -0.172,0.61 -0.254,0.676 -0.828,0.754 v 0.16 h 2.496 v -0.16 c -0.64,-0.094 -0.687,-0.125 -0.687,-0.48 0,-0.114 0.015,-0.223 0.129,-0.594 l 0.527,-1.969 c 0.258,0.067 0.527,0.082 0.945,0.082 0.832,0 1.524,-0.16 1.969,-0.48 0.496,-0.387 0.801,-0.95 0.801,-1.555 0,-0.977 -0.766,-1.523 -2.16,-1.523 h -2.532 z m 1.793,0.414 c 0.063,-0.207 0.192,-0.273 0.481,-0.273 0.402,0 0.785,0.098 0.992,0.242 0.258,0.176 0.371,0.481 0.371,0.961 0,0.672 -0.226,1.137 -0.672,1.41 -0.324,0.176 -0.722,0.258 -1.363,0.258 -0.176,0 -0.258,-0.02 -0.527,-0.051 z"
                           style="fill:#000000;fill-opacity:1;fill-rule:nonzero;stroke:none"
                           id="path2193" /><path
                           d="m 395.852,5.465 h -1.27 l -2.527,3.711 -0.418,-3.711 h -1.379 v 0.109 c 0.387,0.031 0.562,0.114 0.562,0.289 0,0.063 -0.031,0.176 -0.082,0.305 0,0.031 -0.031,0.113 -0.062,0.223 0,0.035 -0.016,0.062 -0.016,0.097 l -0.801,2.801 c -0.242,0.785 -0.351,0.945 -0.734,0.981 v 0.125 h 1.488 V 10.27 c -0.386,-0.02 -0.547,-0.114 -0.547,-0.321 0,-0.082 0.032,-0.273 0.082,-0.402 l 0.879,-3.281 0.465,4.129 h 0.129 l 2.852,-4.243 -0.977,3.555 c -0.113,0.402 -0.273,0.512 -0.754,0.563 v 0.125 h 2.051 V 10.27 c -0.516,-0.036 -0.578,-0.082 -0.578,-0.321 0,-0.133 0.015,-0.226 0.082,-0.465 l 0.93,-3.351 c 0.144,-0.445 0.171,-0.481 0.625,-0.559 z"
                           style="fill:#000000;fill-opacity:1;fill-rule:nonzero;stroke:none"
                           id="path2195" /><path
                           d="m 405.645,5.516 c 0.16,0 0.347,0 0.347,-0.192 0,-0.207 -0.187,-0.207 -0.332,-0.207 h -6.121 c -0.141,0 -0.336,0 -0.336,0.207 0,0.192 0.195,0.192 0.336,0.192 z m 0.015,1.988 c 0.145,0 0.332,0 0.332,-0.207 0,-0.195 -0.187,-0.195 -0.347,-0.195 h -6.106 c -0.141,0 -0.336,0 -0.336,0.195 0,0.207 0.195,0.207 0.336,0.207 z"
                           style="fill:#000000;fill-opacity:1;fill-rule:nonzero;stroke:none"
                           id="path2197" /><path
                           d="m 412.207,11.316 c 0,-0.035 0,-0.05 -0.176,-0.222 -1.265,-1.282 -1.601,-3.223 -1.601,-4.793 0,-1.778 0.382,-3.555 1.648,-4.821 0.129,-0.128 0.129,-0.144 0.129,-0.175 0,-0.082 -0.031,-0.114 -0.098,-0.114 -0.113,0 -1.023,0.707 -1.632,2 -0.512,1.121 -0.641,2.262 -0.641,3.11 0,0.801 0.113,2.035 0.672,3.203 0.625,1.25 1.488,1.922 1.601,1.922 0.067,0 0.098,-0.031 0.098,-0.11 z"
                           style="fill:#000000;fill-opacity:1;fill-rule:nonzero;stroke:none"
                           id="path2199" /><path
                           d="m 419.523,6.508 c 0.176,0 0.368,0 0.368,-0.207 0,-0.192 -0.192,-0.192 -0.368,-0.192 h -5.527 c -0.176,0 -0.351,0 -0.351,0.192 0,0.207 0.175,0.207 0.351,0.207 z"
                           style="fill:#000000;fill-opacity:1;fill-rule:nonzero;stroke:none"
                           id="path2201" /><path
                           d="m 423.707,1.961 -1.84,0.93 v 0.14 c 0.113,-0.047 0.223,-0.093 0.274,-0.109 0.191,-0.078 0.351,-0.11 0.464,-0.11 0.207,0 0.301,0.141 0.301,0.481 v 4.625 c 0,0.34 -0.078,0.562 -0.238,0.66 -0.16,0.094 -0.305,0.125 -0.738,0.125 v 0.16 h 2.82 v -0.16 c -0.801,0 -0.961,-0.113 -0.961,-0.594 V 1.977 Z"
                           style="fill:#000000;fill-opacity:1;fill-rule:nonzero;stroke:none"
                           id="path2203" /><path
                           d="m 428.785,6.301 c 0,-0.785 -0.113,-2.016 -0.676,-3.188 -0.609,-1.25 -1.488,-1.922 -1.582,-1.922 -0.066,0 -0.113,0.051 -0.113,0.114 0,0.031 0,0.047 0.191,0.238 1.008,1.008 1.586,2.629 1.586,4.758 0,1.761 -0.371,3.558 -1.636,4.84 -0.141,0.125 -0.141,0.14 -0.141,0.175 0,0.063 0.047,0.11 0.113,0.11 0.094,0 1.024,-0.703 1.618,-2 0.527,-1.121 0.64,-2.258 0.64,-3.125 z"
                           style="fill:#000000;fill-opacity:1;fill-rule:nonzero;stroke:none"
                           id="path2205" /><path
                           d="m 431.527,4.23 c -0.078,0.079 -0.144,0.161 -0.207,0.254 -0.238,0.321 -0.386,0.434 -0.531,0.434 -0.062,0 -0.109,-0.047 -0.109,-0.145 0,-0.046 0.031,-0.144 0.062,-0.289 0,-0.015 0.02,-0.066 0.02,-0.078 L 431.91,0.031 431.863,0 c -0.449,0.094 -0.718,0.145 -1.168,0.191 V 0.32 c 0.352,0 0.512,0.047 0.512,0.176 0,0.016 -0.016,0.066 -0.031,0.129 l -1.043,3.988 c -0.012,0.098 -0.031,0.16 -0.031,0.207 0,0.274 0.128,0.418 0.367,0.418 0.402,0 0.66,-0.207 1.156,-0.945 z"
                           style="fill:#000000;fill-opacity:1;fill-rule:nonzero;stroke:none"
                           id="path2207" /><path
                           d="m 437.25,2.531 h -1.027 l -2.047,3.024 -0.336,-3.024 h -1.121 v 0.094 c 0.301,0.02 0.461,0.082 0.461,0.227 0,0.046 -0.032,0.14 -0.063,0.253 -0.015,0.02 -0.031,0.098 -0.062,0.18 0,0.027 0,0.047 -0.016,0.078 l -0.641,2.274 c -0.195,0.64 -0.293,0.769 -0.613,0.801 v 0.097 h 1.219 V 6.438 c -0.32,-0.032 -0.43,-0.098 -0.43,-0.27 0,-0.066 0.012,-0.227 0.047,-0.32 l 0.719,-2.66 0.387,3.347 h 0.093 l 2.325,-3.445 -0.801,2.883 c -0.098,0.32 -0.223,0.418 -0.61,0.465 v 0.097 h 1.668 V 6.438 c -0.418,-0.032 -0.464,-0.083 -0.464,-0.27 0,-0.098 0,-0.18 0.062,-0.371 l 0.75,-2.723 c 0.113,-0.367 0.148,-0.402 0.5,-0.449 z"
                           style="fill:#000000;fill-opacity:1;fill-rule:nonzero;stroke:none"
                           id="path2209" /><path
                           d="m 440.852,3.41 h 2.113 c 0.097,0 0.242,0 0.242,-0.14 0,-0.145 -0.145,-0.145 -0.242,-0.145 h -2.113 V 0.992 c 0,-0.097 0,-0.238 -0.145,-0.238 -0.16,0 -0.16,0.141 -0.16,0.238 v 2.133 h -2.117 c -0.11,0 -0.254,0 -0.254,0.145 0,0.14 0.144,0.14 0.254,0.14 h 2.117 v 2.129 c 0,0.102 0,0.242 0.16,0.242 0.145,0 0.145,-0.14 0.145,-0.242 z"
                           style="fill:#000000;fill-opacity:1;fill-rule:nonzero;stroke:none"
                           id="path2211" /><path
                           d="m 445.828,0.047 -1.363,0.687 v 0.098 c 0.094,-0.031 0.176,-0.062 0.207,-0.078 0.144,-0.047 0.273,-0.082 0.336,-0.082 0.16,0 0.242,0.113 0.242,0.355 v 3.426 c 0,0.258 -0.066,0.434 -0.195,0.496 -0.11,0.063 -0.207,0.082 -0.528,0.098 v 0.109 h 2.082 V 5.047 C 446.016,5.031 445.891,4.965 445.891,4.598 V 0.066 Z"
                           style="fill:#000000;fill-opacity:1;fill-rule:nonzero;stroke:none"
                           id="path2213" /><path
                           d="m 448.77,10.305 c 0.687,-0.332 1.14,-0.961 1.14,-1.567 0,-0.515 -0.355,-0.914 -0.82,-0.914 -0.352,0 -0.594,0.238 -0.594,0.574 0,0.34 0.227,0.532 0.594,0.532 0.066,0 0.144,-0.02 0.191,-0.02 0.082,-0.031 0.082,-0.031 0.098,-0.031 0.078,0 0.144,0.066 0.144,0.144 0,0.336 -0.289,0.707 -0.847,1.09 z"
                           style="fill:#000000;fill-opacity:1;fill-rule:nonzero;stroke:none"
                           id="path2215" /><path
                           d="m 349.305,21.121 h 2.5 v -0.16 c -0.594,-0.082 -0.703,-0.145 -0.703,-0.418 0,-0.195 0.011,-0.32 0.109,-0.656 l 1.266,-4.52 c 0.175,-0.59 0.257,-0.652 0.832,-0.75 v -0.176 h -2.528 v 0.176 c 0.59,0.063 0.719,0.145 0.719,0.43 0,0.148 -0.031,0.387 -0.113,0.641 l -1.246,4.519 c -0.196,0.594 -0.258,0.641 -0.836,0.754 z"
                           style="fill:#000000;fill-opacity:1;fill-rule:nonzero;stroke:none"
                           id="path2217" /><path
                           d="m 359.129,17.715 h -1.266 l -2.527,3.719 -0.418,-3.719 h -1.379 v 0.113 c 0.387,0.035 0.563,0.113 0.563,0.289 0,0.067 -0.036,0.176 -0.082,0.305 0,0.031 -0.032,0.113 -0.063,0.226 0,0.028 -0.016,0.063 -0.016,0.094 l -0.8,2.805 c -0.243,0.785 -0.356,0.945 -0.739,0.973 v 0.132 h 1.489 V 22.52 c -0.383,-0.012 -0.543,-0.11 -0.543,-0.321 0,-0.078 0.031,-0.269 0.078,-0.398 l 0.883,-3.285 0.464,4.136 h 0.129 l 2.852,-4.246 -0.977,3.555 c -0.113,0.398 -0.273,0.512 -0.754,0.559 v 0.132 h 2.051 V 22.52 c -0.512,-0.028 -0.578,-0.079 -0.578,-0.321 0,-0.125 0.016,-0.219 0.082,-0.461 l 0.926,-3.347 c 0.144,-0.45 0.18,-0.481 0.625,-0.563 z"
                           style="fill:#000000;fill-opacity:1;fill-rule:nonzero;stroke:none"
                           id="path2219" /><path
                           d="m 368.922,17.77 c 0.16,0 0.355,0 0.355,-0.192 0,-0.207 -0.195,-0.207 -0.336,-0.207 h -6.117 c -0.148,0 -0.34,0 -0.34,0.207 0,0.192 0.192,0.192 0.34,0.192 z m 0.019,1.988 c 0.141,0 0.336,0 0.336,-0.211 0,-0.188 -0.195,-0.188 -0.355,-0.188 h -6.098 c -0.148,0 -0.34,0 -0.34,0.188 0,0.211 0.192,0.211 0.34,0.211 z"
                           style="fill:#000000;fill-opacity:1;fill-rule:nonzero;stroke:none"
                           id="path2221" /><path
                           d="m 375.094,14.215 -1.844,0.93 v 0.144 c 0.109,-0.047 0.223,-0.094 0.27,-0.113 0.195,-0.078 0.355,-0.114 0.468,-0.114 0.207,0 0.305,0.145 0.305,0.481 v 4.633 c 0,0.332 -0.082,0.558 -0.242,0.652 -0.16,0.098 -0.305,0.133 -0.739,0.133 v 0.16 h 2.821 v -0.16 c -0.801,0 -0.961,-0.113 -0.961,-0.594 v -6.133 z"
                           style="fill:#000000;fill-opacity:1;fill-rule:nonzero;stroke:none"
                           id="path2223" /><path
                           d="m 381.703,13.848 c 0.051,-0.145 0.051,-0.176 0.051,-0.192 0,-0.113 -0.082,-0.211 -0.195,-0.211 -0.079,0 -0.141,0.035 -0.176,0.098 l -3.555,9.738 c -0.047,0.145 -0.047,0.176 -0.047,0.192 0,0.113 0.094,0.211 0.207,0.211 0.129,0 0.16,-0.082 0.227,-0.258 z"
                           style="fill:#000000;fill-opacity:1;fill-rule:nonzero;stroke:none"
                           id="path2225" /><path
                           d="m 384.922,14.215 c -0.563,0 -0.996,0.18 -1.363,0.527 -0.594,0.578 -0.993,1.746 -0.993,2.949 0,1.106 0.336,2.309 0.817,2.883 0.383,0.449 0.898,0.688 1.504,0.688 0.515,0 0.949,-0.176 1.316,-0.528 0.594,-0.558 0.992,-1.746 0.992,-2.996 0,-2.082 -0.929,-3.523 -2.273,-3.523 z m -0.035,0.258 c 0.867,0 1.316,1.152 1.316,3.297 0,2.132 -0.449,3.218 -1.316,3.218 -0.879,0 -1.328,-1.086 -1.328,-3.218 0,-2.161 0.449,-3.297 1.328,-3.297 z"
                           style="fill:#000000;fill-opacity:1;fill-rule:nonzero;stroke:none"
                           id="path2227" /><g
                           id="g2229"
                           transform="scale(1,-1)"><path
                             d="m 276.918,-50.891 c 6.75,-3.336 6.48,-12.183 2.629,-17.601"
                             style="fill:none;stroke:#000000;stroke-width:0.512551;stroke-linecap:butt;stroke-linejoin:miter;stroke-miterlimit:4;stroke-dasharray:none;stroke-opacity:1"
                             id="path2231" /></g><path
                           d="m 135.926,60.641 c -0.078,0.113 -0.176,0.226 -0.274,0.339 -0.32,0.43 -0.511,0.59 -0.703,0.59 -0.097,0 -0.144,-0.078 -0.144,-0.187 0,-0.067 0.031,-0.195 0.082,-0.403 0,-0.031 0.011,-0.078 0.027,-0.097 l 1.539,-5.926 -0.047,-0.047 c -0.609,0.145 -0.992,0.207 -1.601,0.274 v 0.171 c 0.496,0 0.703,0.067 0.703,0.227 0,0.031 -0.016,0.094 -0.047,0.191 l -1.395,5.399 c -0.031,0.109 -0.046,0.211 -0.046,0.258 0,0.367 0.16,0.574 0.496,0.574 0.531,0 0.879,-0.289 1.554,-1.281 z"
                           style="fill:#000000;fill-opacity:1;fill-rule:nonzero;stroke:none"
                           id="path2233" /><path
                           d="m 139.934,59.645 -1.282,2.593 -0.031,-1.152 c -0.031,-1.168 -0.211,-1.539 -0.719,-1.539 -0.226,0 -0.453,0.098 -0.613,0.273 -0.187,0.239 -0.269,0.434 -0.383,1.059 l -0.015,0.113 h 0.16 c 0.051,-0.211 0.078,-0.32 0.129,-0.433 0.129,-0.243 0.336,-0.387 0.562,-0.387 0.188,0 0.32,0.129 0.414,0.433 0.114,0.387 0.192,1.075 0.176,1.633 l -0.016,0.641 c -0.031,0.062 -0.16,0.305 -0.367,0.723 -0.226,0.414 -0.304,0.64 -0.355,0.894 -0.047,0.356 0.066,0.578 0.308,0.578 0.301,0 0.575,-0.383 0.688,-0.976 0.031,-0.243 0.047,-0.61 0.062,-1.168 l 2.082,-3.285 z"
                           style="fill:#000000;fill-opacity:1;fill-rule:nonzero;stroke:none"
                           id="path2235" /><path
                           d="m 286.82,60.32 c -0.078,0.11 -0.175,0.223 -0.269,0.336 -0.321,0.434 -0.512,0.594 -0.707,0.594 -0.094,0 -0.145,-0.082 -0.145,-0.195 0,-0.063 0.031,-0.192 0.082,-0.399 0,-0.035 0.016,-0.082 0.031,-0.097 l 1.54,-5.926 -0.051,-0.051 c -0.61,0.148 -0.992,0.211 -1.602,0.273 v 0.18 c 0.5,0 0.707,0.063 0.707,0.223 0,0.031 -0.015,0.097 -0.047,0.191 l -1.394,5.399 c -0.035,0.113 -0.047,0.207 -0.047,0.254 0,0.371 0.16,0.578 0.492,0.578 0.531,0 0.883,-0.289 1.555,-1.282 z"
                           style="fill:#000000;fill-opacity:1;fill-rule:nonzero;stroke:none"
                           id="path2237" /><path
                           d="m 293.938,58.168 h -1.266 l -2.531,3.715 -0.414,-3.715 h -1.379 v 0.109 c 0.386,0.032 0.558,0.114 0.558,0.289 0,0.063 -0.031,0.176 -0.078,0.305 0,0.031 -0.031,0.113 -0.062,0.227 0,0.031 -0.02,0.062 -0.02,0.093 l -0.801,2.805 c -0.238,0.785 -0.351,0.945 -0.734,0.977 v 0.129 h 1.488 v -0.129 c -0.383,-0.016 -0.543,-0.114 -0.543,-0.321 0,-0.082 0.032,-0.273 0.078,-0.402 l 0.883,-3.281 0.465,4.133 h 0.129 l 2.848,-4.247 -0.977,3.555 c -0.109,0.402 -0.27,0.512 -0.75,0.563 v 0.129 h 2.047 v -0.129 c -0.508,-0.032 -0.574,-0.082 -0.574,-0.321 0,-0.129 0.015,-0.226 0.078,-0.464 l 0.929,-3.348 c 0.145,-0.449 0.18,-0.481 0.626,-0.563 z"
                           style="fill:#000000;fill-opacity:1;fill-rule:nonzero;stroke:none"
                           id="path2239" /><g
                           id="g2241"
                           transform="scale(1,-1)"><path
                             d="m 149.336,-67.906 c -6.75,3.336 -6.484,12.179 -2.633,17.594"
                             style="fill:none;stroke:#000000;stroke-width:0.512551;stroke-linecap:butt;stroke-linejoin:miter;stroke-miterlimit:4;stroke-dasharray:none;stroke-opacity:1"
                             id="path2243" /></g><path
                           d="m 235.422,67.969 c 0,-0.164 0,-0.457 -0.32,-0.457 -0.215,0 -0.379,0.16 -0.321,0.32 v 0.16 l 0.16,1.965 -1.613,-1.184 c -0.105,-0.054 -0.137,-0.082 -0.242,-0.082 -0.16,0 -0.32,0.161 -0.32,0.348 0,0.219 0.105,0.27 0.238,0.324 l 1.801,0.86 -1.743,0.859 c -0.218,0.082 -0.296,0.133 -0.296,0.324 0,0.188 0.16,0.375 0.32,0.375 0.105,0 0.137,0 0.43,-0.242 l 1.425,-1.047 -0.187,2.149 c 0,0.269 0.238,0.324 0.348,0.324 0.132,0 0.32,-0.082 0.32,-0.324 l -0.188,-2.149 1.645,1.184 c 0.105,0.078 0.133,0.105 0.211,0.105 0.187,0 0.348,-0.187 0.348,-0.375 0,-0.191 -0.106,-0.242 -0.266,-0.324 -0.754,-0.375 -0.777,-0.375 -1.801,-0.859 l 1.774,-0.832 c 0.187,-0.106 0.293,-0.161 0.293,-0.352 0,-0.187 -0.161,-0.348 -0.348,-0.348 -0.078,0 -0.106,0 -0.43,0.243 l -1.426,1.023 z"
                           style="fill:#000000;fill-opacity:1;fill-rule:nonzero;stroke:none"
                           id="path2245" /></g></g></g></g></g></g></g></g></g><path
         d="m 330.812,44.613 h 28.312 v 18.875 h -28.312 z"
         style="fill:#ffffff;fill-opacity:1;fill-rule:nonzero;stroke:none"
         id="path2247" /></g><rect
       style="fill:#ffffff;stroke-width:0.750002"
       id="rect5214"
       width="37.449894"
       height="16.188019"
       x="330.81201"
       y="28.42498" /></g><g
     inkscape:groupmode="layer"
     id="layer1"
     inkscape:label="meson_bildchen 1"><g
       transform="matrix(1.999995,0,0,1.999995,444.8528,39.84715)"
       ns10:version="1.6.0"
       ns10:texconverter="pdflatex"
       ns10:pdfconverter="inkscape"
       ns10:text="$\\pi,\\eta,\\eta',\\dots$\n"
       ns10:preamble="default_packages.tex"
       ns10:scale="1.5"
       ns10:alignment="middle center"
       ns10:stroke-to-path="0"
       ns10:jacobian_sqrt="1.5"
       id="g4700"
       style="display:inline"><defs
         id="id-a9f52021-7087-4f5b-89e3-0e84f7c95e99"><g
           id="g5580"><symbol
             overflow="visible"
             id="symbol5554"><path
               style="stroke:none;stroke-width:0"
               d=""
               id="path5552" /></symbol><symbol
             overflow="visible"
             id="symbol5558"><path
               style="stroke:none;stroke-width:0"
               d="m 2.640625,-3.71875 h 1.125 C 3.4375,-2.25 3.34375,-1.8125 3.34375,-1.140625 c 0,0.140625 0,0.40625 0.078125,0.75 0.109375,0.4375 0.21875,0.5 0.359375,0.5 0.203125,0 0.421875,-0.171875 0.421875,-0.375 0,-0.0625 0,-0.078125 -0.0625,-0.21875 -0.296875,-0.71875 -0.296875,-1.375 -0.296875,-1.65625 0,-0.515625 0.078125,-1.0625 0.1875,-1.578125 h 1.125 c 0.140625,0 0.5,0 0.5,-0.34375 0,-0.234375 -0.21875,-0.234375 -0.40625,-0.234375 H 1.90625 c -0.21875,0 -0.59375,0 -1.03125,0.46875 -0.34375,0.390625 -0.609375,0.84375 -0.609375,0.890625 0,0.015625 0,0.109375 0.125,0.109375 0.078125,0 0.09375,-0.046875 0.15625,-0.125 C 1.03125,-3.71875 1.609375,-3.71875 1.8125,-3.71875 H 2.375 C 2.0625,-2.515625 1.53125,-1.3125 1.109375,-0.40625 1.03125,-0.25 1.03125,-0.234375 1.03125,-0.15625 c 0,0.1875 0.15625,0.265625 0.28125,0.265625 0.296875,0 0.375,-0.28125 0.5,-0.640625 C 1.953125,-1 1.953125,-1.015625 2.078125,-1.515625 Z m 0,0"
               id="path5556" /></symbol><symbol
             overflow="visible"
             id="symbol5562"><path
               style="stroke:none;stroke-width:0"
               d="m 2.03125,-0.015625 c 0,-0.65625 -0.25,-1.046875 -0.640625,-1.046875 -0.328125,0 -0.53125,0.25 -0.53125,0.53125 C 0.859375,-0.265625 1.0625,0 1.390625,0 1.5,0 1.640625,-0.046875 1.734375,-0.125 1.765625,-0.15625 1.78125,-0.15625 1.78125,-0.15625 c 0.015625,0 0.015625,0 0.015625,0.140625 0,0.75 -0.34375,1.34375 -0.671875,1.671875 -0.109375,0.109375 -0.109375,0.125 -0.109375,0.15625 0,0.078125 0.046875,0.109375 0.09375,0.109375 0.109375,0 0.921875,-0.765625 0.921875,-1.9375 z m 0,0"
               id="path5560" /></symbol><symbol
             overflow="visible"
             id="symbol5566"><path
               style="stroke:none;stroke-width:0"
               d="M 4.859375,-2.765625 C 4.921875,-2.9375 4.9375,-3.078125 4.9375,-3.34375 c 0,-0.640625 -0.390625,-1.0625 -1.140625,-1.0625 -0.78125,0 -1.296875,0.515625 -1.546875,0.875 -0.046875,-0.578125 -0.46875,-0.875 -0.921875,-0.875 -0.453125,0 -0.640625,0.390625 -0.734375,0.5625 C 0.421875,-3.5 0.296875,-2.90625 0.296875,-2.875 c 0,0.109375 0.09375,0.109375 0.109375,0.109375 0.109375,0 0.109375,-0.015625 0.171875,-0.234375 0.171875,-0.703125 0.375,-1.1875 0.734375,-1.1875 0.15625,0 0.296875,0.078125 0.296875,0.453125 0,0.21875 -0.03125,0.328125 -0.15625,0.84375 L 0.875,-0.59375 c -0.03125,0.15625 -0.09375,0.390625 -0.09375,0.4375 0,0.171875 0.140625,0.265625 0.296875,0.265625 0.125,0 0.296875,-0.078125 0.375,-0.28125 0,-0.015625 0.125,-0.484375 0.1875,-0.734375 l 0.21875,-0.890625 C 1.90625,-2.03125 1.96875,-2.25 2.03125,-2.46875 2.046875,-2.53125 2.125,-2.859375 2.140625,-2.921875 2.15625,-3.015625 2.46875,-3.5625 2.8125,-3.84375 3.03125,-4 3.34375,-4.1875 3.765625,-4.1875 c 0.4375,0 0.546875,0.34375 0.546875,0.703125 0,0.046875 0,0.21875 -0.109375,0.625 l -1.125,4.578125 c -0.03125,0.125 -0.03125,0.140625 -0.03125,0.171875 0,0.140625 0.109375,0.265625 0.265625,0.265625 0.3125,0 0.390625,-0.296875 0.421875,-0.40625 z m 0,0"
               id="path5564" /></symbol><symbol
             overflow="visible"
             id="symbol5570"><path
               style="stroke:none;stroke-width:0"
               d="m 1.90625,-0.53125 c 0,-0.28125 -0.234375,-0.53125 -0.515625,-0.53125 -0.296875,0 -0.53125,0.25 -0.53125,0.53125 C 0.859375,-0.234375 1.09375,0 1.390625,0 1.671875,0 1.90625,-0.234375 1.90625,-0.53125 Z m 0,0"
               id="path5568" /></symbol><symbol
             overflow="visible"
             id="symbol5574"><path
               style="stroke:none;stroke-width:0"
               d=""
               id="path5572" /></symbol><symbol
             overflow="visible"
             id="symbol5578"><path
               style="stroke:none;stroke-width:0"
               d="m 2.015625,-3.296875 c 0.0625,-0.109375 0.0625,-0.171875 0.0625,-0.21875 0,-0.21875 -0.1875,-0.375 -0.40625,-0.375 -0.265625,0 -0.34375,0.21875 -0.375,0.328125 L 0.375,-0.546875 c -0.015625,0.015625 -0.046875,0.09375 -0.046875,0.109375 0,0.078125 0.21875,0.15625 0.28125,0.15625 0.046875,0 0.046875,-0.015625 0.09375,-0.125 z m 0,0"
               id="path5576" /></symbol></g></defs><g
         id="id-ff187702-96a0-43f8-a840-2c7e62a42c3b"
         transform="translate(-148.978,-127.259)"><g
           style="fill:#000000;fill-opacity:1"
           id="id-06a34937-c824-4c17-a7fa-0fb848ea0662"><g
             transform="translate(148.712,134.765)"
             id="g4660"><path
               style="stroke:none;stroke-width:0"
               d="m 2.640625,-3.71875 h 1.125 C 3.4375,-2.25 3.34375,-1.8125 3.34375,-1.140625 c 0,0.140625 0,0.40625 0.078125,0.75 0.109375,0.4375 0.21875,0.5 0.359375,0.5 0.203125,0 0.421875,-0.171875 0.421875,-0.375 0,-0.0625 0,-0.078125 -0.0625,-0.21875 -0.296875,-0.71875 -0.296875,-1.375 -0.296875,-1.65625 0,-0.515625 0.078125,-1.0625 0.1875,-1.578125 h 1.125 c 0.140625,0 0.5,0 0.5,-0.34375 0,-0.234375 -0.21875,-0.234375 -0.40625,-0.234375 H 1.90625 c -0.21875,0 -0.59375,0 -1.03125,0.46875 -0.34375,0.390625 -0.609375,0.84375 -0.609375,0.890625 0,0.015625 0,0.109375 0.125,0.109375 0.078125,0 0.09375,-0.046875 0.15625,-0.125 C 1.03125,-3.71875 1.609375,-3.71875 1.8125,-3.71875 H 2.375 C 2.0625,-2.515625 1.53125,-1.3125 1.109375,-0.40625 1.03125,-0.25 1.03125,-0.234375 1.03125,-0.15625 c 0,0.1875 0.15625,0.265625 0.28125,0.265625 0.296875,0 0.375,-0.28125 0.5,-0.640625 C 1.953125,-1 1.953125,-1.015625 2.078125,-1.515625 Z m 0,0"
               id="id-e6584437-57fb-49e2-ac72-208c42892734" /></g></g><g
           style="fill:#000000;fill-opacity:1"
           id="id-369825aa-afb0-4f89-b649-626454541acc"><g
             transform="translate(154.749,134.765)"
             id="g4664"><path
               style="stroke:none;stroke-width:0"
               d="m 2.03125,-0.015625 c 0,-0.65625 -0.25,-1.046875 -0.640625,-1.046875 -0.328125,0 -0.53125,0.25 -0.53125,0.53125 C 0.859375,-0.265625 1.0625,0 1.390625,0 1.5,0 1.640625,-0.046875 1.734375,-0.125 1.765625,-0.15625 1.78125,-0.15625 1.78125,-0.15625 c 0.015625,0 0.015625,0 0.015625,0.140625 0,0.75 -0.34375,1.34375 -0.671875,1.671875 -0.109375,0.109375 -0.109375,0.125 -0.109375,0.15625 0,0.078125 0.046875,0.109375 0.09375,0.109375 0.109375,0 0.921875,-0.765625 0.921875,-1.9375 z m 0,0"
               id="id-1b0b368e-ac58-4b5d-b7fe-198f0a4cd49a" /></g></g><g
           style="fill:#000000;fill-opacity:1"
           id="id-cc48c811-72c9-4ead-a39d-a5714ffc8cff"><g
             transform="translate(159.181,134.765)"
             id="g4668"><path
               style="stroke:none;stroke-width:0"
               d="M 4.859375,-2.765625 C 4.921875,-2.9375 4.9375,-3.078125 4.9375,-3.34375 c 0,-0.640625 -0.390625,-1.0625 -1.140625,-1.0625 -0.78125,0 -1.296875,0.515625 -1.546875,0.875 -0.046875,-0.578125 -0.46875,-0.875 -0.921875,-0.875 -0.453125,0 -0.640625,0.390625 -0.734375,0.5625 C 0.421875,-3.5 0.296875,-2.90625 0.296875,-2.875 c 0,0.109375 0.09375,0.109375 0.109375,0.109375 0.109375,0 0.109375,-0.015625 0.171875,-0.234375 0.171875,-0.703125 0.375,-1.1875 0.734375,-1.1875 0.15625,0 0.296875,0.078125 0.296875,0.453125 0,0.21875 -0.03125,0.328125 -0.15625,0.84375 L 0.875,-0.59375 c -0.03125,0.15625 -0.09375,0.390625 -0.09375,0.4375 0,0.171875 0.140625,0.265625 0.296875,0.265625 0.125,0 0.296875,-0.078125 0.375,-0.28125 0,-0.015625 0.125,-0.484375 0.1875,-0.734375 l 0.21875,-0.890625 C 1.90625,-2.03125 1.96875,-2.25 2.03125,-2.46875 2.046875,-2.53125 2.125,-2.859375 2.140625,-2.921875 2.15625,-3.015625 2.46875,-3.5625 2.8125,-3.84375 3.03125,-4 3.34375,-4.1875 3.765625,-4.1875 c 0.4375,0 0.546875,0.34375 0.546875,0.703125 0,0.046875 0,0.21875 -0.109375,0.625 l -1.125,4.578125 c -0.03125,0.125 -0.03125,0.140625 -0.03125,0.171875 0,0.140625 0.109375,0.265625 0.265625,0.265625 0.3125,0 0.390625,-0.296875 0.421875,-0.40625 z m 0,0"
               id="id-6574b7be-81e1-4320-9eb4-94f128dcd5aa" /></g></g><g
           style="fill:#000000;fill-opacity:1"
           id="id-ff5008c2-b458-472d-80c2-724d4029c372"><g
             transform="translate(164.476,134.765)"
             id="g4672"><path
               style="stroke:none;stroke-width:0"
               d="m 2.03125,-0.015625 c 0,-0.65625 -0.25,-1.046875 -0.640625,-1.046875 -0.328125,0 -0.53125,0.25 -0.53125,0.53125 C 0.859375,-0.265625 1.0625,0 1.390625,0 1.5,0 1.640625,-0.046875 1.734375,-0.125 1.765625,-0.15625 1.78125,-0.15625 1.78125,-0.15625 c 0.015625,0 0.015625,0 0.015625,0.140625 0,0.75 -0.34375,1.34375 -0.671875,1.671875 -0.109375,0.109375 -0.109375,0.125 -0.109375,0.15625 0,0.078125 0.046875,0.109375 0.09375,0.109375 0.109375,0 0.921875,-0.765625 0.921875,-1.9375 z m 0,0"
               id="id-1364fb3e-7fd4-4ed1-a0eb-d41a9cd5c533" /></g></g><g
           style="fill:#000000;fill-opacity:1"
           id="id-0c3a53b0-867b-4d27-90d9-e66da757966d"><g
             transform="translate(168.907,134.765)"
             id="g4676"><path
               style="stroke:none;stroke-width:0"
               d="M 4.859375,-2.765625 C 4.921875,-2.9375 4.9375,-3.078125 4.9375,-3.34375 c 0,-0.640625 -0.390625,-1.0625 -1.140625,-1.0625 -0.78125,0 -1.296875,0.515625 -1.546875,0.875 -0.046875,-0.578125 -0.46875,-0.875 -0.921875,-0.875 -0.453125,0 -0.640625,0.390625 -0.734375,0.5625 C 0.421875,-3.5 0.296875,-2.90625 0.296875,-2.875 c 0,0.109375 0.09375,0.109375 0.109375,0.109375 0.109375,0 0.109375,-0.015625 0.171875,-0.234375 0.171875,-0.703125 0.375,-1.1875 0.734375,-1.1875 0.15625,0 0.296875,0.078125 0.296875,0.453125 0,0.21875 -0.03125,0.328125 -0.15625,0.84375 L 0.875,-0.59375 c -0.03125,0.15625 -0.09375,0.390625 -0.09375,0.4375 0,0.171875 0.140625,0.265625 0.296875,0.265625 0.125,0 0.296875,-0.078125 0.375,-0.28125 0,-0.015625 0.125,-0.484375 0.1875,-0.734375 l 0.21875,-0.890625 C 1.90625,-2.03125 1.96875,-2.25 2.03125,-2.46875 2.046875,-2.53125 2.125,-2.859375 2.140625,-2.921875 2.15625,-3.015625 2.46875,-3.5625 2.8125,-3.84375 3.03125,-4 3.34375,-4.1875 3.765625,-4.1875 c 0.4375,0 0.546875,0.34375 0.546875,0.703125 0,0.046875 0,0.21875 -0.109375,0.625 l -1.125,4.578125 c -0.03125,0.125 -0.03125,0.140625 -0.03125,0.171875 0,0.140625 0.109375,0.265625 0.265625,0.265625 0.3125,0 0.390625,-0.296875 0.421875,-0.40625 z m 0,0"
               id="id-7afd8cb3-62c3-4cba-a334-ff048af225d7" /></g></g><g
           style="fill:#000000;fill-opacity:1"
           id="id-37220eb6-bc37-4e62-8a90-7d751333a739"><g
             transform="translate(174.213,131.15)"
             id="g4680"><path
               style="stroke:none;stroke-width:0"
               d="m 2.015625,-3.296875 c 0.0625,-0.109375 0.0625,-0.171875 0.0625,-0.21875 0,-0.21875 -0.1875,-0.375 -0.40625,-0.375 -0.265625,0 -0.34375,0.21875 -0.375,0.328125 L 0.375,-0.546875 c -0.015625,0.015625 -0.046875,0.09375 -0.046875,0.109375 0,0.078125 0.21875,0.15625 0.28125,0.15625 0.046875,0 0.046875,-0.015625 0.09375,-0.125 z m 0,0"
               id="id-b5f13f2d-1a82-49c7-8411-e09fe7e75f09" /></g></g><g
           style="fill:#000000;fill-opacity:1"
           id="id-54a2a7d3-a1b5-4a67-a2c7-4bc216b348f1"><g
             transform="translate(177.008,134.765)"
             id="g4684"><path
               style="stroke:none;stroke-width:0"
               d="m 2.03125,-0.015625 c 0,-0.65625 -0.25,-1.046875 -0.640625,-1.046875 -0.328125,0 -0.53125,0.25 -0.53125,0.53125 C 0.859375,-0.265625 1.0625,0 1.390625,0 1.5,0 1.640625,-0.046875 1.734375,-0.125 1.765625,-0.15625 1.78125,-0.15625 1.78125,-0.15625 c 0.015625,0 0.015625,0 0.015625,0.140625 0,0.75 -0.34375,1.34375 -0.671875,1.671875 -0.109375,0.109375 -0.109375,0.125 -0.109375,0.15625 0,0.078125 0.046875,0.109375 0.09375,0.109375 0.109375,0 0.921875,-0.765625 0.921875,-1.9375 z m 0,0"
               id="id-b574b70c-8638-4916-b408-79558b811380" /></g></g><g
           style="fill:#000000;fill-opacity:1"
           id="id-5752b35e-f73c-4d67-b7c4-bba2bbb86784"><g
             transform="translate(181.439,134.765)"
             id="g4688"><path
               style="stroke:none;stroke-width:0"
               d="m 1.90625,-0.53125 c 0,-0.28125 -0.234375,-0.53125 -0.515625,-0.53125 -0.296875,0 -0.53125,0.25 -0.53125,0.53125 C 0.859375,-0.234375 1.09375,0 1.390625,0 1.671875,0 1.90625,-0.234375 1.90625,-0.53125 Z m 0,0"
               id="id-eafe6077-4e28-4a61-aea6-4425f383fee9" /></g></g><g
           style="fill:#000000;fill-opacity:1"
           id="id-a7e24201-ac3e-421b-9983-0a818230c42a"><g
             transform="translate(185.861,134.765)"
             id="g4692"><path
               style="stroke:none;stroke-width:0"
               d="m 1.90625,-0.53125 c 0,-0.28125 -0.234375,-0.53125 -0.515625,-0.53125 -0.296875,0 -0.53125,0.25 -0.53125,0.53125 C 0.859375,-0.234375 1.09375,0 1.390625,0 1.671875,0 1.90625,-0.234375 1.90625,-0.53125 Z m 0,0"
               id="id-c7c9d9d5-f0f6-451d-8864-001ca0a8ab1b" /></g></g><g
           style="fill:#000000;fill-opacity:1"
           id="id-ed734752-e5c9-4117-95b5-f3cd72b8be15"><g
             transform="translate(190.292,134.765)"
             id="g4696"><path
               style="stroke:none;stroke-width:0"
               d="m 1.90625,-0.53125 c 0,-0.28125 -0.234375,-0.53125 -0.515625,-0.53125 -0.296875,0 -0.53125,0.25 -0.53125,0.53125 C 0.859375,-0.234375 1.09375,0 1.390625,0 1.671875,0 1.90625,-0.234375 1.90625,-0.53125 Z m 0,0"
               id="id-afd4c55d-df98-4cb4-bf62-ee1b14a7d1ba" /></g></g></g></g></g></svg>
